<?xml version="1.0" encoding="UTF-8"?><svg id="Layer_1" xmlns="http://www.w3.org/2000/svg" viewBox="0 0 16 16.81"><defs><style>.cls-1{fill:#4440ff;}.cls-2{fill:#fff;}.cls-3{fill:#ffe9ff;}</style></defs><path class="cls-2" d="M16,8.35c-1.76-2.06-4.29-3.78-7.01-4.14-3.39-.46-6.9,1.57-8.99,4.14,2,2.54,5.36,4.49,8.67,4.2,2.84-.25,5.53-2.04,7.33-4.2Z"/><path class="cls-1" d="M7.75,5c4.29-.29,4.95,6.25.56,6.69-4.51.46-5.04-6.39-.56-6.69Z"/><path class="cls-3" d="M7.14,6.71c.26-.03.89.19,1.14.3,2.99,1.41-.97,4.59-1.68,1.33-.12-.54-.31-1.54.54-1.63Z"/><path class="cls-2" d="M13.61,14.6l-1.57-1.71c-.07-.07-.18-.08-.25-.01-.07.07-.08.18-.01.25l1.57,1.71c.07.07.18.08.25.01.07-.07.08-.18.01-.25"/><path class="cls-2" d="M13.32,1.9l-1.77,1.91c-.06.07-.06.17,0,.23.07.06.17.06.23,0l1.77-1.91c.06-.07.06-.17,0-.23-.07-.06-.17-.06-.23,0"/><path class="cls-2" d="M8.17,16.63l-.04-2.91c0-.1-.08-.18-.18-.18-.1,0-.18.08-.18.18l.04,2.91c0,.1.08.18.18.18.1,0,.18-.08.18-.18"/><path class="cls-2" d="M7.8.18v2.67c0,.1.08.18.18.18.1,0,.18-.08.18-.18V.18C8.15.08,8.07,0,7.97,0c-.1,0-.18.08-.18.18"/><path class="cls-2" d="M4.06,12.7l-1.58,1.92c-.06.07-.05.17.02.23.07.06.17.05.23-.02l1.58-1.92c.06-.07.05-.17-.02-.23-.07-.06-.17-.05-.23.02"/><path class="cls-2" d="M2.37,2.14l1.7,1.79c.07.07.18.07.25,0,.07-.07.07-.18,0-.25l-1.7-1.79c-.07-.07-.18-.07-.25,0-.07.07-.07.18,0,.25"/></svg>