<?xml version="1.0" encoding="UTF-8"?>
<svg id="Layer_1" data-name="Layer 1" xmlns="http://www.w3.org/2000/svg" viewBox="0 0 276.01 217.92">
  <defs>
    <style>
      .cls-1 {
        fill: #ece4ea;
        stroke-width: 0px;
      }
    </style>
  </defs>
  <path class="cls-1" d="M274.88,30.3c-.25.47-1.44,5.49-3.59,9.94-2.99,6.2-7.68,11.5-10.76,17.66-.24,1.31-.4,2.63-.54,3.95.13-1.32.3-2.64.54-3.96,3.08-6.15,7.77-11.46,10.76-17.66,2.15-4.46,3.34-9.48,3.59-9.94.12-.23.36-.14.55-.14,1.29-17.87-20.26-21.62-33.95-21.25l.05-.04c-4.09.11-7.91.6-11.87,1.66-1.51.41-9.72,3.53-11.87,4.42-.46.2-.78.26-.83.28-11.65,4.97-21.21,11.88-30.91,19.87-7.31,7.28-14.99,14.15-21.8,21.94-6.21,7.11-11.52,14.85-17.39,22.22-.87,2.25-.35,3.77-.97,3.86-5.66-4.59.83-3.61-2.62-6.07-.14.33-.33.55-.55.71.2-.15.37-.36.5-.67-.55-.4-1.47-.32-1.93-.97-.72-5.38,4.46-11.78,8-15.86h0c.95-1.09,2.91-2.75,4.41-4.41-2.17-1.09-3.09,1.08-4.13,1.93h0c-1.36,1.12-2.45,2.62-4.14,3.31-2.67,3.42-5.46,8.34-5.93,8.56-.13.06-2.63.05-2.76,0-.5-.18-5.3-7.39-6.21-8.56-1.56-2.02-3.02-3.86-4.69-5.8-1.53-1.77-2.88-3.04-4.42-4.69h0c-.19-.21-.37-.38-.55-.56h0c-1.24-1.29-9.09-10.21-9.8-10.21-.09,0-1.23,1.15-1.24,1.24-.34,1.94,9.06,11.52,10.76,13.39h0c.46.51,1.21.88,1.66,1.38,2.9,3.19,10.92,11.26,11.87,15.04,1.78,7.04-2.15,5.56-2.48,6.62-.61,1.98,3.99.65-1.24,6.21-1.43-5.54-14.5-22.67-18.63-27.46-7.1-8.22-19.65-19.65-28.43-26.08-.02-.01-.04-.03-.06-.04-1.5-1.62-3.4-2.82-5.19-4.09-2.79-1.96-5.59-3.83-8.55-5.51v-.02c-2.41-1.37-4.93-2.69-7.45-3.86-2.78-1.29-5.67-2.57-8.56-3.59-6.43-2.28-11.9-3.74-18.77-4.14C20.36,8.06-.7,12.14.52,30.71h0c.15,2.2.98,5.05,1.66,7.18,2.42,7.57,7.55,13.97,11.59,20.7.91,4.99.56,10.18,1.1,15.18.16,1.47.34,2.96.55,4.42,2.02,13.93,7.7,18.2,12.42,27.32h0c.72,1.38,2.11,4.73,2.76,6.34,5.27,5.74,13.92,1.9,20.29.28.21-.05.14-.36.14-.55h0c2.28-.2,2.88-.29,5.24.28h.03-.04s.09.02.14.03h0s.08.02.12.03c-.04,0-.08-.02-.12-.03.41.23-1.53,1.71-2.62,2.45-1.62,1.96-3.6,3.57-5.24,5.52-1.93,2.3-3.15,3.83-4.42,6.62h0c-3.4,7.42-.87,8.66-.28,15.59.18,2.13.03,4.82-.55,6.9l.55.97c.31-.17,1.07-.5,1.1-.55.41-.67.59-4.01.6-6.2,0,2.19-.18,5.53-.59,6.21h0c-.03.05-.79.38-1.1.55,7.1,7.41,8.45,15.41,14.35,22.08,1.72,1.94,6.01,5.26,9.66,9.38,2.7,3.05,5.17,6.15,7.31,9.66,11.11-.52,10.03,3.52,12.56,5.52.36-.02.73.03,1.09,0v.02c.56-.04.59-.04,1.1-.28-.45-.15-.35-.9-.03-1.78-.31.87-.4,1.61.04,1.75,2.54-1.21,1.41-4.51,5.24-3.86v-1.07h0v1.08c2.39.4,4.45,2.37,4.69,2.48h.02-.03c-.24.02-.55.32-.55.55-.02.73.17,1.41,0,2.21-.05.25.07.62,0,.83h0c-.96,3.06-3.84,5.32-6.06,7.44.96,3.73,2.48.38,3.31,3.04,1.42.86,2.77-1.15,3.31-2.48-.09,0-.19,0-.28,0,.69-.47,1.48-1,2.21-1.38.81-2.44-.73-2.37-.83-2.48-.12-.14-.15-.17-.28-.28h.02c-.15-.14-.83-.33-.83-.42,1.66-1.62,1.93-4.05,2.48-6.2.09,0,.18-.02.26,0,.67-2.05.25-2.36.28-2.48,2.39-8.2,7.35-9.64,13.8-12.97-1.09-.58-2.2,1.28-2.48-.27h0c.29,1.53,1.38-.31,2.48.26,1.04-.54,2.53-.88,3.45-1.66,4.22-3.56,6.66-20.95,7.87-26.77v-.03c.55-2.65.9-5.36,1.65-7.97-.02-.16-.02-.3,0-.41,0,.11,0,.25,0,.4,1.63,2.61,5.4,17.89,7.59,18.49,2.71.73,4.33-5.19,5.11-7.18-.65.81-.97,1.11-1.14,1.17.18-.11.5-.43,1.07-1.14,1.46-3.74,2.49-7.75,3.31-11.59.48-2.22,1.37-6.15,1.66-8.14.45-3.04.13-5.46.38-5.23-.13.29.09,2.51-.31,5.22-.3,1.99-1.18,5.92-1.66,8.14.53-.3.76,1.75,1.1,3.31,1.24-1.58,1.83,2.82,2.48,5.24l2.21-2.48c-1.05-5.17-2.22-10.62-2.47-15.78,0,0,0,.02,0,.04.25,5.15,1.4,10.58,2.46,15.73.8,3.91,2.18,10.56,3.31,14.08.46,1.42.75,4.35,2.76,2.21.21.36,1.52-.73,0,1.1.2.24.4.46.59.65-.19-.2-.39-.41-.6-.66,1.47-1.78.18-.7-.03-1.07-2.01,2.14-2.3-.79-2.76-2.21-.88-1.52-1.31-1.77-1.6-1.42.29-.4.72-.19,1.62,1.38-1.13-3.53-2.51-10.17-3.3-14.06l-2.21,2.48h0c-.65-2.41-1.24-6.81-2.48-5.24,1.33,6,4.82,25.78,6.9,29.39,4.47,7.77,14.57,1.17,18.77,17.53.35-.05.73-.16,1.07-.27h0c-.33.11-.72.22-1.07.27.03.14-.24-.24.55,2.76l3.86-1.93c.04-.14.22-.48.28-.55l-2.47-.83h.02l2.46.82c.22-.26,1.54-.93,1.93-1.1h0c3.07-1.35,4.61.16,5.51,3.58.04.13-.65.54.28,2.76,1.24,1.24,1.19.73,1.38.83.57.03,1.43-.02,1.93-.28.04-.02.46-.75.55-.83l-.55-2.47v-.02c.35-.21,2.48-3.71,4.84-4.69,3.02-1.25,6.56-.22,8.14-1.52,4.19-9.24,12.69-13.61,17.94-20.42,4.66-6.05,6.96-14.3,13.52-20.42-3.09-9.17,3.05-12.51-.55-21.94h0c-.18-.47-.32-.9-.55-1.37h0c-2.71-5.6-7.85-9.76-11.86-14.35.97-.13,2.03-.22,3.01-.28.52-.03,1-.04,1.46-.03-.45,0-.93,0-1.45.03,6.2.55,14.84,5.69,20.15,1.93l-.37-.73.37.73c1.39-.99,1.57-1.47,2.48-2.76.5-.71.91-1.48,1.38-2.21.32-.5,1.22-2.25,2.21-3.86,7.33-11.97,10.64-18.1,11.87-32.29.41-4.7.41-9.39.83-14.08.9-1.82,2.55-3.28,3.59-4.97,1.14-1.85,2.53-3.67,3.59-5.52,2.58-4.51,6.25-12.54,6.62-17.66h0c-.19,0-.43-.09-.55.14h.05ZM120.86,51.69c-.66,0-.85-.08-.83-.23-.02.15.18.22.83.22h0ZM252.01,81.6c0-.18-.02-.35-.05-.52h0c.03.16.04.34.05.52ZM244.79,103.43h0c-1.55-.93-1.92-1.7-1.77-2.4-.14.7.23,1.47,1.78,2.4ZM244.1,104.95l-1.5-.54h0l1.49.54h0ZM221.88,108.25h0c0-.25-.66-.48.14-1.08.49-.1,1.11-.12,1.81-.11-.69-.01-1.31.01-1.8.11-.82.59-.15.83-.14,1.08h0ZM215.32,21.03c.34-.02.35.2.12.59.22-.39.21-.6-.15-.57h0s.02-.01.03-.02ZM222.15,17.22c-.37.08-.75.01-1.07-.28h0c.33.3.71.37,1.07.29h0ZM222.59,17.05h0ZM222.37,17.15s-.07.02-.11.03c.04-.01.07-.02.11-.03ZM227.55,15.25c.88.79-1.23,1.37.14,2.21-1.38-.84.73-1.43-.14-2.21ZM230.45,15.52s.08.02.13.02c-.06,0-.1,0-.13-.02h0ZM232.64,14.98c-.18,0-1.56-.45-1.75-.15.16-.34,1.6.13,1.77.14h-.02ZM226.87,19.95c.87-.14,1.9-1.48,2.48-2.21.25-.32.35-.23.55-.55h0c4.27-.44,8.42-1.44,12.68-1.94l-.28-1.09h.03l.28,1.1h-.02c-4.28.5-8.42,1.5-12.7,1.93-.2.32-.29.23-.55.55-.58.74-1.61,2.07-2.48,2.21.07.07.55,1.02.55,1.1.89-.09,4.16-1.33,6.33-1.8-2.17.47-5.42,1.7-6.3,1.8.08,2.08-1.83,2.99-3.1,2.55,1.27.4,3.13-.51,3.05-2.56,0-.08-.48-1.03-.55-1.1h0c-.26-.27-.46-.42-.75-.5.31.07.51.23.78.51h.01ZM245.63,94.48c-.16.01-.38.18-.55.28-.49.29.07,1.62-1.38,0,.02.2-.07.3-.27.28,0,0,0-.01-.02-.02-.34-.04-.91-.16-.97.24.06-.4.63-.29.97-.24.21.03.31-.07.28-.28,1.45,1.61.89.3,1.38,0h0c.17-.1.39-.28.55-.28h0c.26,0,.3.3.54.28,0,0,0,.01,0,.01-.22,0-.27-.27-.52-.27h0ZM175.65,103.3c1.27-.62,17.08,1.02,19.87,1.1,7.17.2,14.36-.24,21.53,0,2.09-1.51,3.96.95,4.69-1.92h0c-.73,2.89-2.6.42-4.69,1.93-7.17-.24-14.37.2-21.53,0-2.79-.08-18.6-1.71-19.87-1.1-.16.08-.42.81-.43,1.22,0-.41.26-1.15.43-1.23ZM204.5,55.96c-.04.16-.09.29-.13.43.04-.13.09-.25.12-.41-.27-.43-4.08,1.42-4.69,1.79-.24.14-.5.32-.78.52.28-.21.55-.39.79-.53,0,0,0,0,0-.02.64-.38,4.41-2.21,4.68-1.78h0ZM258.17,49.67c.04-.11.09-.26.15-.46-.09,0-.15,0-.19-.04.04.02.1.03.18.03,0,0,.01,0,.03-.02h0c-.06.21-.11.36-.16.48h0ZM258.03,48.97s0,.07.02.11c-.02-.04-.02-.08-.02-.11ZM253.81,51.69c-.09-.53.43-1.15.29-1.93.15.78-.36,1.39-.29,1.93ZM245.74,92.73c-.1-2.31-1.58-1.83-1.58-.27,0-1.57,1.48-2.06,1.58.27ZM243.86,95.44c.08.18-.17.29-.73.43v.29c0-.1.02-.21,0-.31h0c.54-.14.79-.24.74-.41h-.01ZM242.58,95.85c.1.2.24.34.28.55-.25.07-.5.11-.73.14.23-.03.48-.07.73-.14-.04-.21-.19-.35-.28-.55h0ZM242.58,95.85c.17-.16.28-.2.36-.18-.08-.01-.19.03-.36.18ZM242.26,99.32s0,.04,0,.07c0-.02,0-.04,0-.07ZM236.79,103.86s-.02.1-.03.16c0-.06,0-.12.03-.17h0c.02-.05.77.12.83-.14h0c-.06.27-.81.1-.83.15ZM150.69,97.5s0,0,.02-.02c.51-.56,1.66-.97,1.89-1.08h0c-.18.1-1.37.52-1.9,1.09h-.01ZM152.89,88.68c.51.47.9.93,1.64,1.09h0c-.75-.15-1.13-.62-1.64-1.09ZM152.88,88.66c1.67-1.46,3.44-2.13,5.52-1.1,0,0,0,0-.02.01-2.07-1.02-3.84-.35-5.5,1.11-.1-.09-.83.21-.83-.28h0v-.02c0,.5.73.19.83.28ZM152.62,92.52h0c-.02-.56.14-.93.37-1.17-.22.24-.38.61-.36,1.17h0ZM192.35,63.83h0c.52-.38,1.13-.88,1.77-1.43-.65.55-1.25,1.05-1.78,1.43h0ZM153.45,90.33h0c.6.28.73.37.63.45.08-.07-.06-.17-.64-.44h0ZM157.71,96.67c.32-.18-.04-.92.28-1.1.44-.25,8.59-1.13,10.07-1.38h0c-1.53.26-9.61,1.14-10.04,1.39-.32.18.04.92-.28,1.1-.2.11-3.84.24-4.88-.03,1.06.27,4.66.13,4.86.02h0ZM213.13,92.1c0,.75.07,1.43.2,1.94h0c-.13-.51-.19-1.19-.19-1.94h0ZM198.69,95.57c-.69.01-1.38-.03-1.99-.04.6,0,1.29.05,1.99.04h0ZM194.84,96.12c.35,0,1.3.14,2.16.15-.87,0-1.82-.16-2.17-.15h0ZM179.26,96.22h5.19-5.19ZM206.72,96.66c2.59-.14,7.26-.4,7.45.16-.23-.56-4.88-.29-7.46-.15h0s.01-.01.01-.01ZM225.75,28.22c-.44-.03-.95.12-1.61.54h0c.66-.42,1.16-.57,1.61-.54ZM243.7,74.59c.78-.08,2.23-1.22,3.04-.69.13.08.71,1.41,1.05,2.79-.34-1.37-.92-2.69-1.05-2.78-.81-.53-2.27.61-3.04.69h-.27c.09-.02.18-.01.27-.01,1.88-1.66,6.37-1.7,6.07-5.5h0c.3,3.8-4.18,3.84-6.07,5.5h0ZM239,97.53h0c-2.31-2.07-2.57-2.54-3.57-1.41h-.02c-.92,1.06-1.45,2.65-.56,3.07-.89-.42-.36-2.02.56-3.07,1.02-1.16,1.27-.7,3.59,1.38,0,0,0,.02,0,.03h0ZM235.95,97.29c0,.05,0,.11,0,.16,0-.05,0-.1,0-.16ZM235.94,96.93v.08-.08ZM235.95,96.75v.05-.05ZM235.93,97.46c0,.06-.03.11-.05.16.02-.05.04-.1.05-.16ZM235.76,97.88c-.05.13.02.18.46.17h0c-.46.03-.52-.03-.47-.17h0ZM235.81,97.77h0ZM236.21,98.91c0-.19.04-.4.05-.59,0,.19-.04.4-.05.59ZM236.03,97.42s0,.04.02.06c0-.02,0-.04-.02-.06ZM235.09,99.27c-.08-.02-.15-.04-.21-.07.07.03.13.05.21.07ZM228.76,101.53s.57-.04,2.92-.72c-2.28.66-2.91.69-2.92.72ZM239.67,74.59h0c-.56-.31-1.13-.37-1.7-.34.57-.04,1.15.02,1.71.33h-.01ZM229.32,69.91h0s.05.08.09.13c-.05-.05-.08-.1-.09-.13ZM235.13,87.84h0c-.27-3.53-3.52-9.02-7.16-9.93h0c3.64.92,6.91,6.4,7.16,9.93h0ZM222.17,79.56c.03.06.08.09.15.1-.08-.01-.13-.05-.16-.11,1.63-1.39,2.94-2.09,4.92-1.82-1.98-.26-3.29.44-4.91,1.83h0ZM224.5,92.8c1.08-1.21,3.74-.69,5.11,0,.06.03.41-.04.82.28h0c-.41-.31-.76-.24-.82-.27h0c-1.37-.69-4.04-1.21-5.11,0-1.63-.73-2.91-1.82-4.27-.55h0c1.38-1.26,2.65-.18,4.28.55h0ZM231.97,101.65c-.04.14-.09.29-.13.49.03-.2.08-.36.13-.49ZM245.89,69.07h0c.7-2.82.44-3.61-1.1-5.8-.13.16-.27.31-.42.45.15-.14.28-.29.41-.44h0c-.66-.95-.97-1.08-1.9-1.63,0,0,0-.02-.02-.03h0c-.52-.31-1.07-.56-1.62-.75.57.2,1.12.45,1.65.76.96.57,1.25.7,1.93,1.66,1.53,2.19,1.8,2.99,1.1,5.8-.1.36-.23.7-.27,1.07,0,0-.02,0-.04.01.04-.38.19-.72.28-1.1ZM237.48,66.04c.29-.04,4.32-2.48,5.29-3.76-.94,1.28-5.01,3.74-5.3,3.77-1.05.13-.8-1.14-1.5-.43.71-.74.45.55,1.51.42h0ZM242.35,74.55c-.94-.01-2.31.06-3.36.59,1.29.9,2.3,3.64,2.21,5.87.08-2.23-.93-4.96-2.21-5.86-.88-.62-2.02-.59-3.04,0-1.19.68-1.7,1.99-1.72,3.41,0-1.43.52-2.74,1.72-3.42h0c1.03-.59,2.16-.62,3.03,0,1.05-.53,2.43-.6,3.37-.59ZM217.4,87.35c-.06-.03-.13-.05-.21-.06h0c.08.01.15.04.21.06ZM230.15,97.22h0c-2.3-1.45-6.08.51-8.8.01,0,0-.02,0-.03-.01,2.72.51,6.53-1.47,8.83,0ZM229.47,103.83c.14-.45.19-.82.18-1.11,0,.29-.05.65-.18,1.11ZM229.46,103.85c.38-.17.65-.27.85-.29-.2.03-.47.12-.85.29h0ZM231.08,103.96c-.11-.13-.2-.25-.31-.33.11.08.2.19.31.33ZM233.68,101.96s-.07-.02-.11-.02c.04,0,.07.01.11.02ZM235.02,102.49c-.23-.13-.46-.24-.7-.33.24.09.47.21.7.33ZM240.23,100.77c-.03-.47-.16-1.08-.4-1.87-.85-1.02-.85-1.26-.83-1.33,0,.09.05.36.83,1.31h0c.25.8.38,1.41.4,1.89ZM239.9,98.9c.07,0,.18-.03.3-.02-.12,0-.23.02-.3.02ZM244.65,90.05c.67-.31,1.6.84,1.52-.25h0c.08,1.09-.85-.05-1.52.25ZM247,90.86h0c-.04-1.19.42-2.07.55-3.29.08-.35-.34-1.99-.74-1.63.41-.4.84,1.26.75,1.62,0-.02.3-.13.46-.26-.15.14-.47.25-.47.27-.13,1.22-.58,2.1-.55,3.29ZM247.28,83.44v-.02c-.09-1.04.38-2.67,0-3.58h0c.37.91-.09,2.54,0,3.58l1.08,1.22v.03l-1.09-1.23h0ZM248.67,79.42c.11.1.23.1.34.03-.12.08-.23.07-.34-.02v-.02h0ZM244.67,15.26v-.55h.02v.55c-6.95,2.56-12.2,7.91-17.53,12.83-.06.56.76.62.83,1.52.19,2.29-1.16,3.2-2.53,3.22,1.35-.03,2.68-.95,2.5-3.22h0c-.07-.91-.89-.96-.83-1.52,5.33-4.91,10.59-10.27,17.53-12.83ZM226.45,27.95c-.49-.04-.88-.03-1.18,0,.3-.03.69-.04,1.18,0h0ZM231.3,65.21c.18.1.96.24,1.08.27.58.29,1.81,1.2,2.47,1.65h0c1.01.71,1.51,1.16,2.76,1.94-.04-.73.26-1.3.77-1.78-.5.48-.8,1.05-.76,1.77.08.04.5.65,1.38,1.1,1.03.53,2.15.97,3.31,1.1h-.03c-1.15-.13-2.26-.56-3.28-1.09-.88-.45-1.3-1.05-1.38-1.1-1.25-.77-1.75-1.23-2.76-1.93-.66-.46-1.9-1.38-2.48-1.66h0s-.9-.16-1.09-.27h0s0-.01,0-.01c2.55-8.88.61-16.54-5.91-18.82,6.54,2.27,8.49,9.94,5.94,18.82h-.02ZM226.03,71l2.18.28h0l-2.18-.28h0ZM216.79,76.51c.08.06.28.15.66.29,1.13-.12,2.32-.62,3.45-.28,1.01-.98,2.91-2,3.22-1.54-.33-.43-2.2.58-3.21,1.55-1.13-.34-2.32.16-3.45.28-.4-.15-.6-.23-.67-.3ZM216.08,82.05h0c-.49,1.48-1.14,2.87-1.38,4.42-.2,1.33-.34,2.55-.32,3.71,0-1.16.12-2.37.32-3.7h0c.24-1.55.89-2.95,1.38-4.41-1.91.67-1.31,4.01-2.88,4.96-5.06,1.2-10.19,2.22-15.32,3.04-1.22,2.54-5.86,1.88-6.21,1.93-4.4.68-8.86,1.6-13.25,2.21-2.4.33-5.04.16-7.45.55-.27.05,0,.78-.28.83-.56.1-1.55.06-2.18-.23.63.28,1.61.31,2.16.22.27-.05,0-.79.28-.83,2.41-.39,5.05-.22,7.45-.55,4.39-.61,8.85-1.53,13.25-2.21.35-.05,4.99.61,6.21-1.93,5.13-.82,10.26-1.85,15.32-3.04,1.58-.95.97-4.32,2.9-4.97.04-.1.06-.21.08-.31-.03.11-.05.22-.08.32h0ZM154.53,98.43c-.93.03-2.34-.87-3.38-.96,1.04.08,2.44.98,3.38.96ZM211.26,99.71s0,.28.97.28c-.08-.07-.15-.13-.22-.2.07.06.13.12.21.19,1.08,0,12.01,1.88,12.56,2.21.06.03.1.08.15.14-.04-.06-.09-.1-.14-.13-.55-.33-11.48-2.21-12.56-2.21h0c-.99,0-.93-.3-.97-.27-.27.19.03.8-.4,1.37h0c.44-.57.14-1.19.41-1.38h-.01ZM210.85,101.09h0ZM177.18,105.28c-.09-.03-.19-.06-.28-.09.09.03.19.06.28.09ZM226.3,104.68h0c.69.08,2.51,1.23,4.97,1.66.92.16,1.39.34,2.48.28h0c1.03-.06,1.27.22,2.21-.55.74-.68.83-1.23.82-1.63,0,.4-.07.95-.82,1.64h0c-.94.76-1.19.49-2.21.55-1.09.06-1.55-.12-2.48-.28-.08.8-1.36.97-3,.94,1.63.03,2.91-.13,2.99-.94-2.47-.43-4.27-1.58-4.97-1.66h0ZM237.18,105.43c.26.69,3.83-2.6,3.75-5.17l1.38-.41v.02l-1.38.41c.08,2.58-3.53,5.89-3.75,5.15ZM242.28,99.2c.16-.57.81-.89.99-1.58-.17.7-.82,1.02-.99,1.58ZM258.02,48.89v.03h0c-.68-.98-1.37-1.38-2.06-1.31.69-.08,1.38.31,2.06,1.27h0ZM258.31,47.68c-.08.39.34.47.28.69h.02c-.21.81-.25.79-.27.8.03-.02.09-.14.25-.81h-.01c.05-.23-.37-.31-.28-.7.04-.19,1.31-1.24.88-1.64.45.39-.83,1.46-.87,1.65h0ZM234.3,19.15s-.06.01-.08.02c.03,0,.06-.01.08-.02ZM223.3,21.33c.52.18.95.29,1.29.33-.34-.03-.77-.14-1.29-.32h0ZM230.57,56.87c.05-11.2-8.08-10.27-18.06-8.77-2.19,3.37-5.71,5.67-8.28,8.83-.3,1.79-3.32,4.92-.28,11.04h0l-3.04,2.21c4.85,3.94,9.21,8.98,15.46,10.76.19-.62.62-1.23.55-1.93,2.06.09,3.23-.69,4.96-1.65h0c-1.73.97-2.89,1.74-4.96,1.66.07.7-.36,1.3-.55,1.93-.03.08-.05.18-.07.28.02-.1.04-.2.07-.29-6.26-1.77-10.61-6.81-15.46-10.76h0l3.04-2.21c-3.04-6.12-.02-9.25.28-11.04v.02c0-.1.03-.19.06-.28-.02.08-.04.16-.06.26,2.57-3.16,6.09-5.46,8.28-8.83.04-.1.1-.2.19-.3-.08.09-.15.19-.18.29,9.99-1.5,18.12-2.42,18.06,8.78h-.01ZM168.62,100.54c12.5-.62,23.4-.97,35.41-.07-12-.9-22.91-.53-35.4.07l-.28,2.21c2.32.57,4.6,1.3,6.9,1.93h0c-2.3-.62-4.58-1.36-6.9-1.93l.28-2.2c-2.37.11-4.78.45-7.16.55h-.02c2.39-.1,4.8-.43,7.18-.55h0ZM166.13,102.2c.36.08.73.17,1.1.27-.37-.09-.74-.19-1.11-.27-.3.28-.45.51-.48.69.02-.18.18-.4.47-.69h.02ZM236.79,108.54c-4.1,1.48-6.04.54-9.94.83,3.91-.3,5.84.64,9.94-.83ZM232.62,112.9s.02.04.02.06h0s0-.04-.02-.06ZM238.16,107.71c-.11-.1-.17-.22-.18-.35.02.12.07.24.18.34,1.31-.71,1.52-1.11,1.93-1.38h0c-.4.27-.62.67-1.93,1.38h0ZM242.64,104.4s.1,0,.18-.02c-.08.02-.14.02-.18.02ZM244.51,96.26h0c.6.73.61,1.35.36,1.93.25-.57.24-1.2-.36-1.92h0ZM252.01,81.97v.18-.18ZM253.89,72.39h0c-1.62-1.18-1.99.88-2.75-.25v-.03c.76,1.15,1.13-.92,2.75.27,0-2.94-.02-5.9,0-8.83,0-1.07.25-2.25-.55-3.17-.07-.47.49-.57.55-.97.42-2.67,2.62-5.29,1.39-7.17h0c1.24,1.89-.96,4.51-1.38,7.17-.06.4-.62.5-.55.97.8.92.55,2.1.55,3.17-.02,2.93,0,5.89,0,8.83,0,.22,1.04.26.55,4.14.21.15.33.2.41.2-.08,0-.2-.04-.42-.2.49-3.87-.55-3.91-.55-4.13ZM255.28,76.52h0c.8-.17,2.34-.19,2.65.48-.31-.66-1.85-.64-2.65-.47-.1.52,1.93,1.92,2.07,1.93h0c-.14-.01-2.17-1.41-2.07-1.93h0ZM257.54,78.45h-.12.12ZM257.77,77.91h0c.19-.1.39.13.62-.07-.24.21-.44-.02-.63.08h.01ZM233.49,11.93c.43-.11.94-.2,1.38-.28,8.5-1.58,17.55-.6,25.39,3.04,1.42.66,1.69.76,3.04,1.66.47.32.68.5,1.1.83,1.2.95,1.7,1.14,2.76,2.48.98,1.23,1.71,2.34,2.21,3.86,1.38,4.25.92,9.26-.83,13.39-.52,1.21-6.37,10.19-9.03,11.43,2.66-1.27,8.49-10.21,9.01-11.42,1.76-4.13,2.22-9.14.83-13.39-.5-1.52-1.23-2.62-2.21-3.86-.83.25-2.89-1.25-2.89-2.14,0,.89,2.06,2.4,2.89,2.14-1.06-1.33-1.56-1.53-2.76-2.48-.42-.33-.63-.51-1.1-.83h-.01c-1.35-.9-1.62-.99-3.03-1.65h0c-8.52-2.75-16.4-3.95-25.39-3.03-.44.09-.95.18-1.38.28h0c-.65.14-1.61.35-2.21.54h.02c.6-.19,1.56-.4,2.21-.55v-.02ZM228.51,14.14h0c2.23.34,1.56,1.06,1.66,1.1.3.12.29.22.28.26,0-.04,0-.13-.28-.25-.11-.04.56-.75-1.66-1.1-.55-.09-1.06-.07-1.48.07.41-.15.93-.17,1.48-.08ZM223.56,15.25c.4.05,1.25.66,1.38,1.1l1.08-.27h0c.04.35.15.6.29.78-.14-.19-.25-.44-.29-.77l-1.09.28c.21.76-.15,2.05-.83,2.48h0c-.37.23-.78.33-1.17.32.39,0,.78-.1,1.15-.33.68-.42,1.05-1.72.83-2.48h0c-.13-.45-.97-1.05-1.37-1.11h0c-.14-.02-.28-.02-.41-.02.14,0,.29,0,.44.02h0ZM215.57,46.42h-.03l-2.21-4.69v-.02c3.68-6.91,3.38-13.78,3.6-21.39-.04-.07-.09-.11-.15-.14.07.03.13.08.18.16-.22,7.61.08,14.48-3.59,21.39l2.2,4.67v.02ZM143.67,84.23c2.71,1.31,5.66,11.14,5.93,14.08h.52v.02c-.12.41.2.52.28.82,0,0,0,.02-.03.03h0c-.07-.32-.4-.43-.28-.84h-.53c-.26-2.95-3.22-12.78-5.93-14.09-.72-.35-1.08-.52-1.19-.48.05-.1.42.07,1.23.46h0ZM158.47,106.71c-.08.14.31.39.21.46-.09.07-.31.41-.65.64.31-.22.52-.54.61-.61.11-.08-.35-.37-.17-.49h0ZM226.86,130.21c.3.81-.79.98.55,2.62.83,1.02,1.45,1.29,1.88,1.08-.44.26-1.06,0-1.92-1.06-1.33-1.64-.25-1.81-.55-2.62-3.13-8.34-11.04-15.75-10.49-16.56.07-.1.15-.18.23-.25-.07.06-.13.14-.19.23-.55.81,7.36,8.22,10.49,16.56h0ZM230.12,131.09h0c-.68-1.42-2.86-.67-3,.69.14-1.37,2.32-2.12,3-.69ZM177.27,183.92c-.88-.42-3.75-2.11-3.27-2.68-.33.6,2.44,2.23,3.3,2.64,5.47,2.58,13.11,3.22,18.49.28.09-.06.15-.11.2-.15-.05.06-.12.12-.23.19-5.38,2.94-13.02,2.3-18.49-.28h0ZM162.65,173.98c-1.98.41-3.9-1.09-3.21-2.68-.63,1.57,1.27,3.05,3.23,2.64,1.59,1.56,9.67,6.34,11.45,7.18h0s-.02.02-.04.03c-1.79-.85-9.85-5.62-11.44-7.17h.01ZM161.71,123.03c.23.22.43.37.55.69h0s0,.01,0,0c-.03,0-.05,0-.08-.02-.12-.27-.31-.42-.52-.62.76-1.75-1.4-4.96-.74-5.2-.44.43,1.54,3.46.79,5.15h0ZM179.65,183.33c2.3-.75,1.82-1.09,1.93-1.1l-1.64-4.91h0l1.64,4.91c1.77-.23,2.76,2.13,4.83-3.04h0c-2.07,5.18-3.06,2.82-4.83,3.05-.11,0,.38.35-1.93,1.1,4.23,1.23,10.03,1.82,14.46.44-4.44,1.39-10.23.8-14.47-.44h0ZM169.32,175.59s.02-.1.03-.16c0,.06,0,.11-.03.16ZM165.88,154.48s0-.06-.02-.09c1.37,1.79,2.12.63,2.73,1.49.15.21.3,1.96,1.66,4.83.07-.7-.35-1.3-.55-1.93-.94-2.93-5.35-15.31-5.52-16.15-.05-.29-.07-.71.28-.69-.36-.72-.73-2.08-1.1-2.76h0c.37.68.73,2.04,1.1,2.76-.36-.02-.34.4-.28.69.17.84,4.58,13.23,5.52,16.15h0c.2.62.61,1.22.55,1.92,1.51,3.19,2.85,6.51,4.97,9.38,1.17-1.87,1.93.26,2.07.28,1.78.28,3.8-.28,5.65.82h0c.44.99,1.38,1.97,1.66,3.03h0c.06.23-.04.57,0,.83.27.04,3.27,1.05,4.28,1.1,4.2.22,7.89-2.9,7.31.14,0,.07-.67.79-.82.96h-.03c-.46.51-.47.51-1.09.82h0c.57-.3.6-.31,1.04-.8.15-.16.82-.91.83-.97.59-3.04-3.1.08-7.31-.14-1.02-.05-4.01-1.05-4.28-1.1-5.46-.99-5.78-.1-9.38-4.97-2.12-2.86-3.46-6.19-4.97-9.38-1.36-2.87-1.51-4.62-1.66-4.83-.61-.84-1.34.27-2.68-1.42v.03ZM158.02,131.3c.08.03.17.11.3.19-.14-.08-.22-.16-.3-.19ZM153.15,119.18c0,.24.02.47,0,.67h.28l.55-.41c-.1.98-.05,1.3.55,2.07h0c-.6-.76-.65-1.08-.55-2.06l-.55.41c-.76,5.92,4.01,6.43,6.06,4.32-2.03,2.15-6.87,1.68-6.1-4.28h-.24v-.04c.02-.2,0-.44,0-.68h.01ZM159.51,132.28s-.02-.02-.05-.03c.03.02.05.03.05.03.22.14.38.21.49.21-.11,0-.27-.07-.49-.21ZM160.05,125.38h0ZM155.1,121.8c.66,1.2,1.48,1.67,2.25,1.63-.77.04-1.6-.43-2.26-1.64h0ZM153.66,114.11c-.18.86-.27,1.73-.35,2.61.08-.88.17-1.75.35-2.61.18-.84.44-1.67.85-2.48h0c-.41.81-.68,1.64-.85,2.48ZM168.4,113.07c.37-.15.64.28.96.27-.32.02-.59-.41-.96-.27ZM193.56,120.57c-.07.14-.03.42.18.93,1.86.98,3.67,2.05,5.52,3.04,1.75.94,3.56,1.97,5.24,3.04.51.33,1.03.65,1.55.98-.53-.33-1.05-.66-1.56-.98.04.18.05.35.05.51,0-.15-.02-.32-.05-.5h0c-1.67-1.07-3.48-2.11-5.24-3.04-1.85-.99-3.66-2.06-5.52-3.04h-.06c-.23-.56-.24-.84-.11-.94ZM215,132.04c.35,1.08.76,3.25.81,4.36.03.68.09,1.97,0,2.48-.09.48-.18.86-.29,1.17.1-.3.2-.67.28-1.13h0c.09-.51.03-1.8,0-2.48-1.34.24-.95-.48-1.93-1.66-2.53-.75-4.39-2.68-4.83-2.76-.74-.13-.91-.03-.87.13-.05-.17.11-.27.87-.14.44.08,2.3,2.01,4.83,2.76-.52-.63-1.1-1.21-1.7-1.77.61.56,1.19,1.14,1.71,1.77.98,1.19.59,1.91,1.93,1.66-.05-1.12-.47-3.3-.82-4.38h0ZM216.92,146.08c-.03.42-.05.79-.05,1.12,0-.33.02-.71.05-1.12h0ZM216.92,145.79c.98.88,1.3,1.89,1.29,2.66,0-.77-.31-1.77-1.29-2.65h0ZM173.31,174.51h0c-1.07-1.7-3.17-2.75-3.31-1.17.12-1.59,2.23-.55,3.3,1.15h0s.06.1.09.16c-.03-.06-.06-.11-.08-.14ZM175.24,176.71c.05.13.24,1.2.72,2.25-.48-1.05-.67-2.12-.73-2.26,0,0,0-.02-.02-.04.49-1.46.92-2.08,1.32-2.19-.39.16-.81.79-1.29,2.24h0ZM172.57,172.42c.27.55,1.01.93,1.17,1.33-.18-.4-.91-.78-1.17-1.33ZM184.35,166.23c.29-.02.48-.49.77-.54-.29.05-.48.51-.77.54,1.27,2.72,2.11,5.67,4.14,8h0c-.96.02-1.92.15-2.88.11.96.04,1.92-.09,2.88-.11-2.03-2.32-2.87-5.28-4.14-8ZM171.09,158.77c-.8-2.33-1.42-4.7-2.21-7.03h0c.79,2.34,1.41,4.71,2.21,7.03.1.29.17.53.28.83-.12-.31-.18-.54-.28-.83h0ZM169.19,150.89s0-.07-.02-.1h0s0,.07.02.1ZM172.18,152.5c-.6-.61-1.16-1.24-2.18-.9h0c1.03-.34,1.59.29,2.18.9ZM174.42,158.22c.77,1.42.79,1.98.49,2.05.29-.08.26-.65-.5-2.05h0c-.61-.87.26-.26.54-.82h0c-.28.57-1.14-.05-.54.82ZM174.9,160.27s-.09,0-.15,0h.15ZM172.79,157.98c0,.09-.02.17-.04.24h0c.02-.07.03-.15.04-.24.05-1.33-1.85-4.7-2.79-6.37.94,1.66,2.84,5.03,2.79,6.37ZM179.39,168.98h0c.21-1.04.16-1.05-.28-1.93.44.87.5.88.28,1.93ZM177.79,165.4c-.28-.2-.6-.36-.95-.46.35.1.67.25.95.46.28.2.53.45.74.73-.22-.28-.46-.53-.74-.73ZM175.25,167.74c.66.78,1.05-.66,1.24,1.24-.19-1.89-.58-.46-1.24-1.24-.03-.46-.58-1.41-.83-1.79.26.38.8,1.32.83,1.79ZM178.69,168.94c-.47,0-1,.05-1.49.07.49,0,1.02-.06,1.49-.07ZM179.39,168.98h0c-.2-.03-.42-.05-.66-.04.24,0,.46,0,.66.04ZM180.02,168.76c-.08.1-.25.28-.63.22.38.06.55-.12.63-.22ZM180.08,168.7h0ZM185.78,166.53c.07.19.15.41.24.65.13.36.28.77.46,1.2-.17-.43-.33-.84-.46-1.2-.09-.24-.17-.46-.24-.65ZM186.85,169.25c.14.29.29.59.45.87s.33.56.51.82c-.18-.26-.36-.53-.51-.82-.16-.28-.31-.58-.45-.87ZM193.6,173.4c2.42-1.29,2.98-3.41,3.17-3.58h0c-.18.18-.74,2.29-3.17,3.59-3.08,1.65-4.4.86-5.07.83.67.03,2.01.8,5.06-.83h.01ZM202.78,170.38c-.12,0-.41-.11-.77-.11.35,0,.64.1.77.11ZM199.93,173.13c-.19-.72-.41-1.03-.66-1.07.24.03.47.33.66,1.03v.04h0ZM187.25,182.78c6.46,1.23,2.08-4.44,5.24-2.76.11.06.21.14.3.24-.09-.09-.18-.17-.29-.23-3.16-1.68,1.22,3.99-5.24,2.76-.08-.04-.14-.08-.2-.13.05.05.12.09.19.12h0ZM194.14,182.23c.52-.09,1.12-3.78,1.52-4.41,2.33-1.24,2.34-3.71,2.61-3.68-.26.06-.3,2.47-2.6,3.68-.41.62-1,4.33-1.52,4.42-.08,0-.15,0-.22-.05.06.04.13.06.21.04h0ZM196.21,179.06h0c.1.03.19.04.27.04-.08,0-.17-.02-.27-.04ZM203.11,170.37h0s-.09,0-.13,0c.05,0,.09,0,.13,0ZM204.49,168.99l-1.23-3.28v-.02l1.24,3.3h-.01ZM208.35,164.85l-1.37-2.05h0s1.38,2.05,1.38,2.05h-.01ZM202.14,163.74c-.84.06-.62-1.04-.83-1.1.21.05,0,1.15.83,1.1.2-.02,2.04-1.87,2.14-3.11-.1,1.24-1.94,3.1-2.14,3.11ZM170.4,117.1c.05-.05.11-.05.18-.03-.06-.02-.13-.02-.18.03-.44.45.1.52.13.55h0s-.58-.1-.13-.55ZM202.84,130.34c2.91,1.36,5.69,3.14,5.79,2.35h0c-.08.81-2.89-.99-5.8-2.35h0c-1.26-.59-2.62-1.07-3.86-1.65-.08.1-.12.2-.14.3,0-.1.05-.21.13-.32h0c1.23.59,2.6,1.07,3.86,1.66h.02ZM208.51,158.49h0c3-3.35,4.57-6.17,1.23-9.93v.02c-1.48-1.66-4.68-3.21-6.63-4.42.07.38-.54.22-.55.41h0c-.02-.19.61-.03.55-.41-1-.62-1.04-.8-1.1-.83h0c-2.28-1.33-4.03-2.39-5.17-2.93,1.13.54,2.88,1.6,5.17,2.93-.17-.77.56-1.44.55-1.52-.04-.29-.86-.51-1.1-.69-.84-.65-1.79-1.29-2.81-1.93,1.01.64,1.95,1.28,2.8,1.92.02-.15.18-.21.42-.21-.22,0-.38.07-.4.21.24.18,1.05.4,1.1.69,0,.08-.71.75-.55,1.52.06.04.1.21,1.1.83,1.95,1.21,5.15,2.76,6.62,4.42h0c3.34,3.77,1.77,6.6-1.24,9.94v-.02ZM208.35,155.32h0s-.55,0-.55,0c-.03-.22-.08-.47-.14-.71.06.25.11.49.14.7h.55ZM205.74,148.74c1.02,1.51,1.99,3.33,2.42,5.32-.43-1.98-1.4-3.8-2.42-5.32ZM208.21,154.3c.02.08.02.17.04.26,0-.09-.02-.17-.04-.26ZM204.44,157.99c.12-2.02-5.12-7.35-6.57-8.6.22.33.33.76.55,1.1h0c-.22-.34-.33-.76-.55-1.1h0c-.56-.86-1.14-1.69-1.73-2.52.59.83,1.17,1.66,1.74,2.52,1.45,1.24,6.69,6.59,6.57,8.6h0ZM169.58,118.85c.02.13.06.27.13.45.48.47.99.92,1.49,1.37-.51-.45-1.02-.89-1.49-1.36-.08-.19-.11-.33-.13-.46ZM173.02,122.34l.83-1.38h0l-.83,1.37c.35.35,1.7,2.2,3.31,3.86,1.85,1.9,3.88,3.68,5.79,5.51h0c-1.91-1.83-3.95-3.61-5.8-5.51-1.61-1.65-2.96-3.5-3.31-3.86-.36-.37-.74-.72-1.12-1.06.39.35.77.69,1.12,1.05v.02ZM185.73,124.81c3.78,1.89,7.22,4.57,11.04,6.35.28.14.47.35.81.28h0c-.36.07-.53-.15-.82-.28h0c-.04.76-1.27-.27-1.58.52.32-.8,1.54.24,1.58-.52-3.82-1.78-7.26-4.47-11.04-6.35h.01ZM201.6,132.54c.34.15,2.25.23,2.35.28.2-.13.25-.26.21-.39.06.14,0,.28-.2.41h0c-.11-.05-2.01-.12-2.35-.27-.27-.12-5.09-3.33-5.02-2.5-.15-.91,4.75,2.36,5.02,2.48h-.01ZM214.12,155.34c0,.26,0,.53.03.8-.02-.28-.04-.54-.03-.8ZM214.15,156.15h0ZM179.27,126.32c1.31,1.33,3.09,2.8,3.97,3.46,3.24,2.47,7.43,4.73,11.3,6.94-3.87-2.21-8.06-4.47-11.29-6.93-.88-.67-2.67-2.14-3.98-3.47h0ZM195.11,132.14s0-.09,0-.13c0,.04,0,.08,0,.13h0ZM212.79,141.46c-.04-.44-.57-.65-.57-.76h0c.03.11.53.32.56.76h.01ZM202.02,139.18h0c.33-.12.76-.18,1.23-.18-.47,0-.9.06-1.23.18ZM204.5,140.92c-.07.15-.24.3-.55.46h0c.31-.16.48-.31.56-.46ZM197.67,135.17c-.02.43-.35.93-1.17,1.52h0c.83-.59,1.16-1.09,1.18-1.52h0ZM206,142.46c-.32-.02-.51.32-.53.31h0s.22-.33.54-.31h0ZM206.98,140.28l2.2-1.1h0l-2.2,1.09c1.06,1.85-.89,1.35-.83,2.21h0c-.06-.86,1.89-.36.83-2.21h0ZM207.95,142.77c-.05-.02.05.18-.36.14.4.03.31-.17.36-.14ZM212.64,155.46s.06-.02.1-.02c-.03,0-.07,0-.1.02-.06.04-.19.76-.29,1.38.1-.62.23-1.33.29-1.38ZM213.99,156.23c-.36.02-.83-.76-1.19-.81.35.05.83.83,1.19.81ZM213.91,144.23c-.02-.88-.36-1.6-1.13-2.57h0c.77.96,1.11,1.69,1.12,2.57h.01ZM208.49,135.31h0s0,0,0,0h0ZM208.31,135.05c.06.1.11.18.14.23-.03-.04-.08-.12-.14-.23ZM195.13,131.88c0-.07.03-.13.05-.18-.02.05-.04.11-.05.18ZM187.08,145.11c0-.07.02-.15.02-.23,0,.09-.02.17-.02.23ZM198,150.67c-.07.03-.13.07-.2.09.07-.02.14-.06.2-.09ZM198.17,138.87c.09.06.19.12.28.17-.09-.06-.19-.12-.28-.17ZM212.79,139.92c0-.06,0-.12,0-.18h0c0,.06.02.12,0,.18ZM209.59,136.43h0c-.34-.46.7-.71.36-1.14.36.44-.7.68-.36,1.15h0ZM185.59,124.82c-.05,0-.1.01-.14,0,.04.01.09,0,.14,0ZM169.6,119.21c-.23-.2-.5-.4-.76-.59.26.19.53.39.76.59ZM187.11,145.25h.02c1.13,1.39,1.94,3.82,3.16,4.96.89.84,9.32,5.78,11.44,5.8h0c.52.91,1.26,1.8,1.66,2.76.15.36.55.54.57.93-.02-.37-.42-.56-.57-.92-.41-.96-1.14-1.85-1.66-2.76-2.1,0-10.55-4.96-11.45-5.8-1.21-1.14-2.03-3.58-3.17-4.97h0ZM193.73,155.73h0c-.09-.41.07-.45.41-.27-.33-.16-.48-.12-.4.28h0ZM201.21,161.7c-1.19.03-2.31-1.28-3.21-1.31.9.02,2.01,1.33,3.21,1.31ZM196.82,157.19c.46.27.94.53,1.45.75.5.22,1.56.23,1.66.28h0c-.12-.05-1.16-.06-1.66-.28-.51-.22-1.01-.49-1.46-.76h.01ZM193.73,155.73h0c.2.23,1.1,2.52,3.59,4.97h0c-2.49-2.45-3.39-4.74-3.59-4.97h0ZM202.47,160.15c.17-.03.69.18,1.08.11-.38.09-.89-.12-1.08-.11ZM204.21,160.16c-.18-.39-.27-.27-.28-.28h0c-1.08-1.21-3.27-.75-3.44-.82-.06-.02-.09-.07-.13-.11.04.03.07.08.12.1.17.07,2.37-.39,3.45.83h0s.1-.11.28.27h0ZM203.95,152.42c-1.63-1.95-3.54-3.83-4.97-5.93-1.86-2.73-2.96-4.46-3.39-5.45.43.99,1.53,2.73,3.39,5.45,1.44,2.1,3.35,3.97,4.97,5.93,1.2-2.28,2.42-1.09,3.17.59-.75-1.67-1.97-2.85-3.17-.59h0ZM207.62,154.43v-.03.03ZM208.82,165.03c-.23.03-.33-.16-.42-.19.08,0,.18.21.42.19ZM210.57,161.81h0c-.1-.91-.29-1.26-.49-1.25.21-.02.39.33.5,1.25.5.08.03.53.55.83.14.08.23.11.29.1-.06.02-.15,0-.31-.1-.52-.3-.06-.74-.54-.83ZM214.69,160.16h0ZM216.08,154.63h0c0,.18-.85,3.01-1.38,3.18v-.02c.53-.19,1.37-3,1.37-3.16h0c0-.19-.87-3.03-1.09-3.57h0c.21.51,1.1,3.4,1.1,3.59v-.02ZM185.5,119.1c.05.02.11.03.16.05-.05-.02-.11-.03-.16-.05ZM186.06,119.29c.15.05.3.1.45.16-.15-.06-.3-.1-.45-.16ZM186.51,119.45c.86.31,1.74.67,2.57,1.03-.83-.36-1.71-.72-2.57-1.03ZM181.45,118.76h0c.26-.24.72-.31,1.31-.28-.59-.04-1.05.04-1.31.28ZM183.15,118.53c.08.01.15.01.24.03-.08-.01-.16-.02-.24-.03ZM184.83,118.89h.03-.03ZM171.52,114.66c.3.02.52-.34.55-.32h0s-.25.35-.55.31h0ZM171.92,116s-.04,0-.07-.01h.08,0ZM174.46,131.93c0,.14.09.41.22.9,2.35,2.97,7.12,9.57,9.1,12.69h0c2.01,3.17,4.02,6.63,5.8,9.94,1.56,1.19,1.18-.05,2.21-.55h0c.07-.04.18,0,.28,0,.22-.05.32-.14.44-.17-.12.03-.22.13-.43.17,2.76,3.96,5.52,7.92,8.28,11.87,2.75-2.91,3.99-3.73,6.07-7.45.18-.32-.67-1.35,1.65-1.66h0c-2.32.31-1.46,1.34-1.64,1.66-2.08,3.71-3.31,4.54-6.07,7.45h0c-2.76-3.96-5.52-7.92-8.28-11.87-.1.02-.22-.03-.28,0h0c-1.03.51-.65,1.75-2.21.56,2.23,4.16,3.75,8.85,6.07,12.96h0c-2.31-4.11-3.83-8.8-6.07-12.96-1.78-3.31-3.79-6.77-5.8-9.94-1.98-3.12-6.77-9.74-9.11-12.7-.2-.25-.41-.49-.61-.74.2.25.42.5.62.75-.14-.5-.21-.77-.22-.91h-.02ZM204.89,168.79c-.07.03-.13.06-.21.1.07-.03.14-.07.21-.1ZM165.44,130.35h0c-.16.12-.43.99-.68,1.37.03.07.11.53.55,1.38,2.53,4.87,5.85,10.82,8,15.73.84,1.94,1.76,3.8,2.48,5.8h0c.4,1.14,3.37,10.42,2.52,10.4.82-.05-2.17-9.39-2.54-10.42h0c-.72-1.99-1.62-3.85-2.47-5.78h0c-2.14-4.91-5.47-10.85-8-15.73-1.24,1.37-.11,6.21-1.6,6.15,1.48.04.36-4.78,1.59-6.15-.44-.85-.52-1.31-.55-1.38h0c.26-.39.53-1.28.69-1.38h0ZM168.84,170.66c-.15.08-.3.12-.45.12.15,0,.3-.05.45-.12h0ZM165.02,170.64c.32-.47.64-.66.96-.68-.32.03-.64.21-.95.68-1.12,1.63.34,1.01.55,1.1,1.1.47,2.75,1.02,3.31,2.21h0c-.56-1.19-2.21-1.74-3.31-2.21-.21-.08-1.67.53-.55-1.1h-.01ZM164.73,172.82c0,.05,0,.1,0,.16,0,.03.08.11.18.21.11.11.25.24.43.4.18.16.38.33.61.51.15.12.31.24.47.37-.16-.12-.32-.25-.47-.37-.22-.18-.43-.35-.61-.51-.18-.16-.32-.29-.43-.4-.11-.11-.17-.18-.18-.21-.02-.05-.02-.11,0-.16ZM167.43,175.17c-.25-.16-.5-.33-.75-.51.25.18.5.36.75.51ZM169.17,175.78c-.28.15-.85-.08-1.5-.47.64.39,1.22.62,1.5.47ZM170,173.67v.02s0,.06.04.11c-.03-.06-.05-.11-.05-.13h.01ZM196.49,180.29v-.02c4.66-5.97,15.1-13.41,18.46-19.68h0c-3.32,6.26-13.77,13.69-18.45,19.68v.02ZM221.06,135.99c.09-.07.16-.17.22-.28-.06.11-.13.2-.21.28h0ZM192.49,122.07h0c.44.03.79-.4.91-.52h0c-.13.12-.48.55-.92.51h0ZM170.27,113.79c.17.08.93.75,1.1.83h0c-.66.28.83.45-.28,1.1.29.16.48.22.61.25-.13-.03-.33-.09-.62-.25h0c1.1-.65-.38-.82.28-1.1-.17-.09-.93-.75-1.1-.83h0c-.89-.43.04-.63-.4-.83h0c.46.2-.49.4.41.83.8-2.43,11.1,4.35,13.2,1.97h0c-2.11,2.39-12.4-4.39-13.2-1.97h0ZM165.57,121.78c-.96-.94-2.02-1.85-3.02-2.74,1.79,2.07,3.77,4.01,5.52,6.07.15.18.31.36.46.54-.16-.18-.32-.36-.47-.55-1.75-2.06-3.73-4-5.52-6.07,1.01.9,2.08,1.8,3.03,2.75h0ZM161.39,123.92c-.17.19-.29.46-.5.63h0c.2-.18.33-.45.51-.63ZM160.12,125.31c.12-.13.31-.33.48-.5-.2.2-.39.4-.48.5ZM159.25,118.36c.16,2.04-1.46,4.11-3.46,3.67,2,.42,3.62-1.65,3.45-3.69,0,0,0,.02,0,.02h0ZM152.72,124.6c.14-.23.41-.27.85-.1,0,0,0,.01.02.02-.44-.18-.72-.14-.87.08h0ZM155.32,125.98l-.23.23c.25.22,3.32,4.72,3.86,5.52h0c-.54-.82-3.6-5.3-3.86-5.52h0c-.11-.1-.79-.47-1.03-.45.22-.03.91.35,1.04.45l.23-.23h0ZM158.41,167.19c1.04.39,1.72.82,2.09,1.18-.38-.36-1.05-.79-2.09-1.18h0ZM205.78,114.96c1.42,2.04,3.51,3.51,5.06,5.45h0c1.07,1.33,3.65,5.14,4.42,6.61,0,0,0,.01,0,.02-.12,1.44,1.7,3.4,1.13,4.37.46-1-1.3-2.93-1.17-4.33-.77-1.47-3.35-5.29-4.42-6.62-1.57-1.96-3.69-3.44-5.11-5.52.03,0,.06.02.08.02h0ZM152.33,106.19c.06.46,4.59,6.75,5.24,7.59,2.4-.64,5.02.57,7.44.83h0c-2.42-.25-5.04-1.46-7.45-.82,1.58,2.06,2.55,2.63,3.85,4.13-.05-.02-.08-.03-.12-.04-1.25-1.44-2.22-2.02-3.78-4.05-.64-.84-5.17-7.13-5.24-7.59-.06-.41,0-.65.18-.76-.13.12-.18.34-.13.71h0ZM151.5,109.93h0c-.48,1.43-1.45,10.2-1.37,11.99.12,2.99,1.54,7.94,2.48,10.9h0c.5,1.59,1.36,3.14,1.93,4.7,1.39-1.13-1.49-8.4-.28-10.21-1.19,1.83,1.68,9.07.29,10.2,2.04,5.61,4.37,11.31,6.62,16.84,1.57,3.85,3.07,7.73,4.97,11.45.04,0,.08,0,.12,0-.05.03-.11.05-.18.03-1.9-3.71-3.4-7.59-4.97-11.45-2.25-5.54-4.57-11.23-6.62-16.84-.57-1.56-1.43-3.11-1.93-4.69-.93-2.95-2.36-7.91-2.48-10.9-.08-1.8.9-10.64,1.38-12.01.16-.44.26-.96.49-1.09-.2.16-.3.65-.45,1.07h-.01ZM136.87,147.18h0c-.23-.67.55-2.9.28-4.38h0c.26,1.49-.51,3.71-.28,4.38h0ZM135.36,154.9c.5-.3,2.16.18,2.54.26h0c-.36-.07-2.03-.56-2.54-.25-.05.03-.09.16-.09.34,0-.19.04-.32.09-.35h0ZM134.67,148.42c1.52-.03,3.1-.26,4.62-.14h0c-1.52-.11-3.1.12-4.62.15h0ZM131.36,142.48s-.02,0-.04,0c.02-.06.03-.26.4-.52h0c-.35.28-.35.49-.37.51h0ZM78.36,174.51h.01-.01v-.28c-1.2-2-2.98-3.17-5.24-3.59-.17-.16-.38-.39-.55-.55h-.02c-4.54-4.13-9.36-7.96-11.32-13.94-.06-.04-.11-.06-.17-.07.06,0,.12.03.19.07,1.97,5.98,6.79,9.81,11.32,13.94,2.54-.35,1.09-2.73.83-2.9-.2-.13-.36-.18-.51-.18.15,0,.32.05.52.18.26.17,1.7,2.55-.83,2.9.17.16.38.39.55.55,2.25.42,4.03,1.59,5.24,3.59v.28c.11.03,1.14.96,1.66,1.38-2.79,1.8,1.28,2.79,6.36,2.79-5.08,0-9.16-.99-6.37-2.79-.53-.42-1.56-1.35-1.66-1.38ZM125.54,122.52c-.36.4-.72.81-1.08,1.21.36-.41.72-.82,1.08-1.22h0ZM117.56,166.74c.01,1.23-.39,1.91-1.39.31h0c-.32-.52-.43-1.19-.83-1.65-.08.1-.19.19-.3.29.1-.08.19-.17.26-.26.06-.09.04-1.28.78-1.97-.69.7-.67,1.84-.74,1.93.41.46.51,1.15.83,1.66h-.01c.99,1.58,1.39.9,1.38-.32h.02ZM115.77,167.27h.02-.02ZM88.75,182.89c.46-.6.59-1.79.09-3.69.5,1.9.37,3.09-.09,3.69ZM80.17,172.24c.16.36.5.55,1.23,1.16h0c-.73-.6-1.07-.79-1.22-1.16h-.01ZM62.63,147.46c-.85-.85-1.31-2-1.36-3.15.05,1.15.51,2.3,1.36,3.14,1.15.14,2.02-.1,3.04-.55.26-.12.59-.33.95-.58-.36.26-.69.47-.96.59h0c-1.01.45-1.89.69-3.02.55h0ZM122.73,121.69c.01-.1.01-.18,0-.26v.26c-.02.2-.08.46-.2.79,0,.01,0,.02-.01.03,0-.01,0-.02.01-.03.12-.33.18-.59.2-.79ZM111.23,166.84c-.36.32-.59.9-.84,1.6h-.03c.25-.72.5-1.3.87-1.61h0ZM110.55,168.45c-.07,0-.11,0-.14,0,.03,0,.06,0,.14,0ZM97.13,172.78c.03-.37-.48-.93-.42-1.03h0c-.01.13.47.68.42,1.03ZM101.27,164.85h0s.02-.06.02-.1c0,.04-.01.07-.02.1ZM99.88,169.06v.5c.01-.15.01-.32,0-.5ZM99.82,169.99v.04-.04ZM102.67,166.16c-.02-.52-.53-1.42-.57-2.14-.11,0-.21,0-.29.02.08,0,.18-.02.29-.02v-.02c.04.74.56,1.65.57,2.16ZM101.59,164.1h.02-.02ZM102.45,160.92c-.22.37-.37.95-.37,1.92,0-.97.15-1.55.37-1.92ZM100.2,159.92c-.59.59-1.16,1.11-1.69,1.34,1.06-2.81,2.18-5.5,3.31-8.28,2.11-5.16,4.33-10.27,6.35-15.46.69-.42.38-.23.83-.83.08-.1.2-.43.28-.55h0c.1,0,.23,0,.34,0h-.33c-.08.12-.2.45-.28.55-.45.6-.15.41-.83.83-2.02,5.2-4.25,10.29-6.35,15.45h0c-1.13,2.78-2.24,5.47-3.31,8.28.53-.24,1.1-.75,1.68-1.33h0ZM72.01,161.96c0,.59.49.85.82,1.22h0c-.32-.37-.82-.63-.82-1.22,3.75,1.24,6.21-.5,7.18,1.23h0c-.96-1.74-3.43.02-7.18-1.23ZM83.87,140.3c-2.16,2.44-11.78,15.77-13.31,19.67,1.5-3.87,11.15-17.23,13.32-19.69h.01c5.98-6.76,13.48-11.9,19.59-18.49.72-.78,1.57-1.3,2.21-2.21h0c.5-.72,1.41-1.65.55-2.2-1.58.75-2.83,2.26-4.14,3.31h-.01.01c1.31-1.06,2.55-2.55,4.13-3.31h.01c.86.55-.04,1.48-.55,2.21,1.68-.85,8.47-8.24,9.35-8.54h0c-.83.26-7.67,7.7-9.36,8.55-.64.92-1.49,1.43-2.21,2.21-6.11,6.59-13.62,11.73-19.6,18.49ZM60.96,132.55h-.03c1.24-3.66,4.71-8.87,7.59-11.58h0c-2.88,2.72-6.33,7.92-7.57,11.57h0ZM122.25,116.68c-.24-.84-.18-1.8-.28-2.62-.17-1.35-.05-1.64-.82-2.47h0c.77.82.65,1.12.82,2.47.11.82.04,1.78.28,2.62ZM115.89,128.55c-.08.56-.1,1.05-.1,1.49,0-.45.02-.94.1-1.49ZM114.8,130.07c-.11.91-.44,2.65-.28,3.45.01.06.05.1.1.12-.06-.02-.1-.06-.11-.12-.16-.8.18-2.54.28-3.45.11-.97-.63-2.03,1.66-4.14h0c-2.28,2.11-1.54,3.16-1.65,4.13h0ZM107.09,136.13c1.08.1-.13,1.68.33,1.71-.49,0,.74-1.61-.33-1.71ZM69.26,140.68c0-.3,2.69-.05,2.59-1.18.13,1.15-2.55.91-2.59,1.2h0v-.02ZM121.42,119.3h0v.02c-2.5,1.02-2.07,1.47-4.96.55v-.02c2.89.93,2.46.47,4.96-.55.12-1.32.07-1.61-.83-2.48-.69-.67-1.3-.94-1.82-.93.53-.01,1.13.26,1.83.93h0c.9.87.96,1.16.83,2.48h-.01ZM79.73,127.31c-1.04.55-2.28,1.07-3.27,1.64.99-.57,2.23-1.1,3.27-1.64-.96-1.55-1.28-2.33-1.06-3.77-.21,1.45.11,2.21,1.07,3.77h-.01ZM100.21,116.94s.05.08.08.11c-.03-.04-.05-.08-.08-.11ZM100.44,117.26s.03.08.05.11c-.02-.04-.03-.08-.05-.11ZM100.61,117.68h0ZM99.94,116.71s.04.03.06.05c-.02-.01-.04-.03-.06-.05ZM106.43,114.57c.02.1.05.21.08.32h0c-.04-.11-.07-.21-.08-.32ZM112.88,108.72c-.08-.22-.26-.46-.55-.71h0c.29.26.47.49.55.71ZM119.76,111.02h0c-.98-.79-1.49-.83-1.84-.6.36-.24.87-.21,1.86.6h-.02ZM120.33,112.14c.21-.14.24-.59.79-1.08h.01c-.55.5-.56.98-.8,1.08ZM121.19,106.01c.45-.4.83-.74,1.14-1-.31.26-.7.61-1.14,1ZM116.2,110.11c-.31.29-.59.59-.85.92.18-.05.87.61,1.24.55.07-.01.14-.03.2-.06-.07.03-.14.06-.22.07-.37.07-1.04-.58-1.23-.55.26-.34.55-.64.86-.93ZM116.95,111.43s-.05.03-.08.04c.03-.01.05-.03.08-.04ZM78.9,122.35c-.45.24-.91.48-1.37.7.46-.23.92-.46,1.37-.7h0ZM80.85,130.07c2.68-1.53,5.25-3.24,8-4.69h0c1.26,1.29.12,2.78,1.65,3.58.2-.13.85-.05,4.12-2.47h0c-3.26,2.4-3.92,2.33-4.12,2.47-1.53-.8-.39-2.3-1.66-3.59-2.75,1.45-5.31,3.16-8,4.69h0c-5.42,3.1-11.29,5.87-16.27,9.66h0c4.98-3.8,10.86-6.57,16.27-9.66h.01ZM70.61,142.27c-.08.12-.43.32-.52.5.08-.17.43-.37.52-.5ZM70.63,142.22h0ZM80.53,138.87c.44,0,.98.1,1.68.31-.71-.21-1.24-.31-1.68-.31ZM98.55,123.5c-.09.07-.17.13-.26.2.09-.07.17-.13.26-.2ZM114.52,110.2h0c.31-.26.63-.53.94-.81-.31.29-.62.56-.94.82h0ZM112.86,122.9h0c.24-.94.13-2.3.55-3.3h0c-.42.99-.3,2.36-.55,3.31h0ZM111.39,126.57c-.59,1.27-1.28,2.65-1.93,3.95.65-1.3,1.34-2.68,1.93-3.95ZM113.93,123.76c.76.76.78,1.25.86,1.34h0c-.09-.07-.09-.57-.86-1.34ZM114.79,125.11h0c.06.05,1.02.53,1.45.73-.41-.19-1.35-.66-1.46-.73h.01ZM121.14,120.42h0c-.11.26-.22.5-.34.72.11-.22.23-.46.33-.71h0ZM76.14,123.72c-.93.44-1.86.89-2.76,1.39.9-.51,1.82-.95,2.76-1.39ZM67.87,134.76h0c2.16-1.56,4.34-3.03,6.62-4.42h0c-2.27,1.39-4.46,2.87-6.62,4.42-1.07.77-2.16,1.54-3.24,2.33,1.08-.79,2.16-1.57,3.24-2.34h0ZM70.9,143.05h0c-.85.51-2.11,1.59-3.25,2.49,1.14-.9,2.39-1.97,3.25-2.49ZM68.14,152.01h0c-.1-.02-.73.74-1.18.66.47.07,1.11-.73,1.18-.66ZM106.77,126.31c-.39.5-.77,1.01-1.15,1.53.38-.52.76-1.03,1.15-1.53ZM105.68,156.57c.23-.94.64-1.19-.55-1.1h0c1.19-.09.77.16.55,1.09h0v.02h0ZM102.59,160.72c.1-.12.2-.21.32-.29-.11.08-.22.17-.32.29ZM113.93,137.77c-.06-.08-.14-.17-.23-.25-.29.55-.55,1.11-.83,1.66h0c-.51.21-.93.34-1.29.4.35-.06.77-.19,1.27-.4.28-.55.54-1.12.83-1.66.45-.83,1.15-2.38,1.38-2.76-.05-.35.08-.92,0-1.1h0c.76-1.09.76-1.94.74-2.98.02,1.03.02,1.89-.74,2.98.08.17-.05.75,0,1.1.75-1.22,2.61-4.07,3.53-4.24-.93.18-2.78,3.02-3.52,4.24-.23.38-.93,1.93-1.38,2.76.1.09.17.17.23.25.12.16.18.31.23.43-.05-.12-.11-.27-.23-.43h.01ZM119.6,129.81c.27-.29.58-.6.83-.88-.25.28-.56.59-.83.88-.18.2-.35.39-.49.56.14-.17.31-.36.49-.56ZM120.86,128.41s.03-.05.05-.08c-.02.03-.03.06-.05.08h0ZM120.58,125.94h.01c-.21.73-.67,1.82.13,1.94-.81-.11-.35-1.21-.14-1.93h0ZM121.14,125.11l-.83-.28c-2.02,1.51-5.05-.29-5.13-3.61.08,3.31,3.11,5.12,5.13,3.6l.83.28h0ZM61.52,134.21h0c.25-.72.48-.88.83-1.38,1.61-2.31,4.59-3.78,6.9-5.24.57-.35,1.07-.75,1.66-1.1h0c-.59.35-1.08.74-1.65,1.09h0c-2.31,1.46-5.29,2.93-6.9,5.24h0c-.34.49-.57.66-.82,1.37-.7,2-.84,3,1.1,4.42.16-.13.34-.25.5-.38-.17.13-.34.26-.5.39-.26.21-.98,1.02-1.38,1.38h0c.4-.36,1.12-1.17,1.38-1.38-1.93-1.42-1.8-2.42-1.1-4.42h-.01ZM62.35,140.84c-.06-.36-.36-.49-.66-.62.3.12.6.25.66.62ZM64.33,147.96c-.27,0-.41.21-.7.18.28.03.43-.18.7-.18ZM65.42,156.58c-.32-.62-.57-1.26-.73-1.92.16.66.41,1.31.73,1.92ZM67.6,159.33h0c.79.7,1.55,1.35,2.74,1.37h0c-1.2-.02-1.96-.68-2.75-1.38h.01ZM78.46,164.68c-.07-.16-.18-.32-.38-.52h0c.2.2.31.37.37.52h0ZM79.08,163.58s0,.03-.01.05c0-.02,0-.03.01-.05ZM101.55,130.91h0c1.3.89,1.12-1.45,2.2-.56h0c-1.07-.86-.89,1.46-2.19.56-5.46,5.99-10.24,12.23-14.63,19.03h0c4.39-6.81,9.17-13.03,14.62-19.03ZM91.89,174.79c-2.32.24-7.86.19-10.09-1.11,2.25,1.29,7.76,1.34,10.07,1.1.86-.09,1.89-.38,2.76-.55-.69-.48-.64-.89-.55-1.66.04-.32.63-1.63.83-2.21.14-.4.81-1.04.83-1.1.66-1.84,1.25-3.67,1.93-5.52,2.54-.78,4.82-4.06,6.34-6.34-.96-.29-2.05.72-3.12,1.8,1.07-1.08,2.16-2.1,3.13-1.81h0c-1.52,2.29-3.81,5.58-6.35,6.36-.68,1.85-1.27,3.68-1.93,5.52l1.1-.28c1.09-1.77,1.24-4.28,3.38-4.29-2.14.02-2.27,2.53-3.37,4.29-.33.54-.71,1.84-1.29,1.86.57-.02.95-1.32,1.29-1.86l-1.1.28c-.03.06-.69.7-.83,1.1-.21.57-.77,1.85-.83,2.19h0c-.09.77-.14,1.19.55,1.66,4.2-.84,4.82-1.32,7.45-4.69.57-.74,1.09-1.51,1.57-2.31-.48.82-1.02,1.61-1.6,2.36v.02c-2.6,3.33-3.23,3.81-7.41,4.64-.87.17-1.9.46-2.76.55h0ZM91.88,174.8c-1.22.9-3.1,1.16-5.1,1.13,2,.03,3.88-.23,5.1-1.13ZM83.31,173.07c.82,0,1.49.2,2.26.2-.77,0-1.44-.18-2.26-.2ZM95.76,177.27c.94-.3,4.56-1.78,5.23-2.2h0c-.66.43-4.28,1.92-5.23,2.2.87,2.56,1.81,3.6,2.65,3.64-.84-.03-1.78-1.08-2.66-3.64h.01ZM121.7,128.97c-2.56,3.32-4.67,7.73-6.35,11.59-2.33,5.35-4.54,11.97-5.8,17.66-.24,1.07-.66,2.23-.83,3.31,2.99.44,1.54-2.34,4.12-1.93h0c-2.57-.41-1.13,2.37-4.12,1.93-.09.6-.55,3.01-.55,3.17.05.98.49.93,1.08.37-.61.59-1.07.67-1.12-.33-.01-.16.46-2.57.55-3.17.17-1.08.59-2.23.83-3.31l-2.46,1.09s0-.03.01-.04l2.48-1.1c1.27-5.69,3.47-12.3,5.8-17.66l-.83-.83c-.12.25-.22.47-.33.7.11-.23.21-.46.33-.7l.83.83c1.68-3.86,3.79-8.27,6.35-11.59h0c1.01-1.3,2.22-2.46,3.14-3.83h.01c-.93,1.37-2.14,2.53-3.14,3.83h0ZM121.12,127.9s-.04.06-.06.1c.03-.06.05-.11.08-.14h0s-.02.03-.03.04h0ZM122.52,120.96h0c.57-1.56,1.63-3.27,2.19-4.91h0c-.56,1.65-1.62,3.36-2.18,4.91h-.01ZM70.1,114.83c-.45.12-2.27,1.2-6.36,3.65-5.36,4.4-8.11,9.93-9.66,16.56,1.35.66,1.55-1.83,3.17-.83l.14,3.04c.06-2.87.82-5.11,1.92-7.72h0c-1.1,2.61-1.85,4.85-1.92,7.71-.14,6.01,3.21,11.89,3.31,15.45h0c-.1-3.56-3.45-9.46-3.31-15.46h0l-.14-3.03c-1.62-.99-1.81,1.49-3.17.83-.28,1.18-.05,3.04-.28,4.13h-.04c.23-1.09,0-2.96.28-4.14,1.55-6.63,4.3-12.16,9.66-16.56,4.25-2.54,6.04-3.61,6.4-3.66v.03ZM60.28,155.74c.17-1.08.41-2.34.41-2.98,0,.65-.24,1.91-.41,2.98ZM53.61,139.22c-.97.35-2.66,2.53-1.62,2.99,0,0-.02.02-.03.02-1.09-.46.67-2.71,1.65-3.01h0ZM66.64,168.05c-3.35-3.98-4.95-6.1-7.08-10.92-2.43-5.49-3.88-11.4-5.79-17.08,0,0,.03-.04.03-.04.13-.4.17-.62.16-.73,0,.11-.02.32-.16.74,1.91,5.67,3.37,11.6,5.79,17.09h0c2.14,4.86,3.75,6.97,7.16,11.01-.02-.02-.05-.05-.09-.08h-.01ZM60.87,152.6c.75-.29,1.28,2.43,1.5,4.65h0c-.22-2.2-.76-4.9-1.49-4.65h0ZM66.09,162.91h0c-.94-.25-2-5.85-3.2-5.98,1.2.09,2.26,5.71,3.21,5.98h-.01ZM66.64,162.36h0c.52.19-.38,1.14,0,1.38.07.04.13.06.2.07-.07,0-.14-.02-.21-.07-.38-.24.51-1.18,0-1.38h.01ZM68.44,163.88c.21.22.5,1.75.83,2.21,1.03,1.43,1.64,1.8,2.09,1.76-.45.05-1.07-.32-2.1-1.76-.33-.46-.62-1.99-.83-2.21-.19-.2-.36-.29-.53-.32.16.02.34.11.54.32ZM76.98,168.43h0c-1.32-1.15-2.66-2.33-3.84-3.63,1.19,1.3,2.53,2.48,3.84,3.63ZM77,169.07v-.02.02ZM80.01,170.64c0-2.11,7.65-16.34,9.36-19.29,0,0,.01,0,.02-.02-1.69,2.91-9.37,17.19-9.37,19.3h0c-1.55-1.06-2.76-1.26-2.9-1.37h0c.15.11,1.35.31,2.89,1.38ZM102.08,178.92c.35-1.55.38-3.14,0-4.68h0c.38,1.55.35,3.14,0,4.69h-.01.01ZM108.4,171.87c-.18.21-.43.65-.7,1.16.27-.51.52-.95.7-1.16ZM113.68,168.16c-.07.02-1.25-.33-1.37-.54h.01c.1.2,1.31.56,1.38.55h0v.27c.09.06.17.1.26.12-.09-.02-.18-.06-.27-.12v-.27h-.01ZM113.18,169.13c-.08.1-.15.19-.23.29.08-.09.15-.19.23-.29ZM117,170.39v-.02c.72.1,1.31-.14,1.73-.55-.42.42-1.01.66-1.73.57ZM77.92,181.43c-7.18-7.88-16.45-14.4-20.84-24.43-1.22-2.77-1.95-7.57-3.59-9.52-.08.02-.19,0-.28,0-2,.2-3.16-1.72-1.53-2.62-1.58.91-.41,2.81,1.57,2.6.1,0,.19.02.27,0,1.64,1.95,2.38,6.75,3.59,9.52,4.39,10.01,13.62,16.53,20.79,24.38l.02.07h0ZM84.15,179.75h0c-.69.1-.9.16-.92.26,0-.11.2-.17.92-.26ZM110.11,176.44h0c.68-.39,1.23-.74,1.67-1.04-.44.31-1,.66-1.7,1.06-.99.57-2.01,1.1-3.03,1.63,1.03-.54,2.06-1.07,3.06-1.65h0ZM113.52,173.98s-.04.03-.07.06c.04-.04.07-.06.09-.08.36-.21,1.78.09,2.7-.68-.91.8-2.36.49-2.72.7ZM119.21,166.93h0c.5-.3.86-.57,1.13-.82-.27.25-.63.52-1.13.82ZM118.65,163.61c1.69-2.95,1.83.16,2.75.41h0c-.92-.24-1.06-3.35-2.75-.41ZM126.93,136.41v.03c-2.49,7.42-7.77,18.51-10.48,26.74h0s-.02.02-.04.03c2.71-8.23,8-19.34,10.49-26.76.47-1.39.61-3.14.9-3.45-.27.4-.42,2.07-.87,3.41h0ZM131.62,87.85l1.37,1.09c.81-1.34,2.89-3.01,4.42-3.31.47-2.07-.12-2.83-.9-3.2.79.37,1.4,1.13.92,3.21.09-.02.18-.02.27-.02-.09,0-.18,0-.26.02-1.54.3-3.61,1.97-4.42,3.31-.96,1.59-1.47,2.39.55,3.31.33.15,2.84.3,3.17.55.31.24.03.96.14,1.1.35.49.27.78.41.83.1.03.25-.02.41-.11-.17.09-.33.15-.43.12-.13-.05-.06-.33-.4-.81v-.03h0c-.11-.14.17-.86-.14-1.1-.32-.25-2.84-.4-3.17-.55.05,1.33-.2,1.72-.59,1.73.39-.01.63-.41.58-1.73-2.02-.92-1.51-1.72-.55-3.31h0l-1.38-1.1h0ZM136.32,94.46c.26-.04.44.02.52-.09-.07.12-.25.07-.52.1h0c-2.06.28-1.29.52-1.38.54-.54.88.24,3.54-.25,3.82.47-.32-.29-2.94.24-3.81-.36.11-.47.13-.83.28v.04-.05h0c.36-.15.47-.18.83-.28.09-.02-.68-.26,1.38-.55h0ZM138.8,85.91s-.49-.03.28.83c.39.03.7.08.96.15.77.21,1.09.59,1.8,1.23-.71-.64-1.03-1.02-1.8-1.23-.26-.07-.57-.12-.96-.15h0c-.63-.05-1.12-.08-1.5-.07.38,0,.88.01,1.51.07-.78-.86-.28-.79-.28-.83ZM141.61,94.16c.82-.06,1.73-.22,2.48-.55.18-.08.33-.2.45-.34-.13.14-.28.27-.46.35-.02,0-.03,0-.05.01h0c-.74.33-1.66.48-2.48.55h0c-.56.05-1.84,1.07-1.92-.83h.05c.09,1.89,1.37.85,1.93.81h.01ZM135.93,101.76c.16,0,.33-.04.52-.12.54-.86-.32-.72-.41-1.1h.02c.09.38.94.23.41,1.1-.2.08-.38.11-.54.12h0ZM132.33,103.57v-.03c1.04-1.7.38-1.9.57-1.88-.14,0,.47.23-.57,1.92h0ZM128.87,98.47c.21-4.26,1.06-5.21,1.97-5.19-.91-.02-1.75.94-1.96,5.19.28,1.54,3.29,1.6,4.69,1.79.72-.52.33-.53.55-1.66.02-.12.04-.26,0-.37.04.11.02.25,0,.38h0c-.21,1.11.17,1.14-.55,1.64.13.02.27.05.41.09-.15-.03-.29-.07-.43-.09-1.4-.19-4.4-.24-4.69-1.79h0ZM131.68,101.19c-.11-.01-.24,0-.39,0h.39ZM134.05,98.14s0-.02-.02-.03c0,0,0,.02.02.03ZM133.84,98.05h0c.05-.2.09-.42.12-.65-.03.23-.07.45-.12.66h0ZM138.81,92.81h0c.05,0-.29-.1.83-.28h0c-1.11.18-.78.28-.82.28h0ZM141.37,90.05c0,.5.14,1.01.48,1.93-.35-.92-.49-1.42-.48-1.93ZM142.39,99.99h0c.43-.13,1.99.03,3.03-.69-.45-1.84-.3-4.8-.86-5.54.57.72.42,3.7.87,5.55-1.05.72-2.62.56-3.04.69-.75.24-2.5.62-2.59,1.05.04-.44,1.82-.83,2.59-1.06ZM143.22,96.54h0c-.23-.1-.42-.15-.58-.14.16,0,.35.04.58.14ZM140.46,106.06h0c.4-.04.48-.09.81-.27h0c-.33.18-.42.24-.81.27ZM144.01,105.7c1.01.98-.74,2.05-1.2,3.12v-.04c.48-1.06,2.18-2.11,1.2-3.08ZM141.5,106.53c.1.08.24-.1.61.07.15.07.5-.41.69-.17-.19-.21-.53.26-.68.18-.38-.18-.52.02-.62-.08h0ZM142.67,103.58c-.18.7-.44,1.29-.28,2.06h0c-.16-.77.11-1.35.28-2.06h0,0ZM142.54,105.61c.33-.07.66-.06.99-.09-.32.03-.66.03-.99.09ZM141.3,103.84h0c.03-.78.29-1.41.28-2.18h0c0,.78-.24,1.39-.28,2.18h0ZM145.98,104.96c-.18-.13-.36-.17-.53-.15.18-.02.35.02.54.15h0ZM144.88,104.96c-.39.13-.85.51-1.1.55h0c.25-.04.71-.42,1.1-.55h0l.55-4.54h0l-.55,4.55h0,.02ZM136.51,96.3c.03.06.07.14.1.24h0c-.03-.09-.07-.17-.1-.24-.07-.13-.14-.2-.21-.23-.07-.02-.14,0-.2.07.07-.07.13-.1.2-.07.07.02.14.1.21.23ZM135.79,97.07c.03-.23.08-.43.13-.58-.05.16-.1.35-.13.58ZM135.07,100.55c.08,0,.15.03.23.03-.08,0-.16-.02-.23-.03ZM136.81,106.3c.11,0,.21.04.2.32h-.11.1c0-.27-.09-.33-.19-.32ZM140.11,111.02c-.66,0-1.32.08-1.86.56h0c.54-.48,1.2-.56,1.87-.56h0ZM139.33,111.73c-.08,0-.18.01-.28.02.11,0,.2-.01.28-.02ZM141.3,111.03h-.39.38c.71-.04,1.43.17,2.21-.15,0,0,0,.01,0,.02-.77.31-1.48.1-2.19.13h0ZM145.7,93.09h0c-.11-.27-.29-.54-.41-.82-.03,0-.05.02-.08.05.04-.05.08-.09.12-.09.12.28.29.54.4.82l-.03.02c1.24,3.12,1.21,7.1.58,10.47.62-3.37.65-7.33-.58-10.45h0ZM143.15,90.39c0,.25-.09.49-.24.73.15-.23.23-.48.24-.73ZM143,89.63c.07.17.12.34.14.51-.02-.17-.07-.34-.14-.51ZM138.8,92.81c-.22,0-1.21-.08-1.54-.3.34.21,1.33.3,1.54.3ZM139.08,100.68c-.76-2.05-.62-4.29-.55-6.49h0c-.08,2.2-.21,4.44.55,6.49-1.55-.11.34,1.67-.69,2.07-.27.1-.49.13-.67.1.18.03.39,0,.66-.1,1.03-.4-.86-2.18.69-2.07ZM138.38,94.25c.05-.02.1-.04.14-.05h0s-.09.03-.14.05ZM130.8,108.97c.06.09.14.17.22.23-.09-.07-.17-.14-.23-.24-1.87-2.68-.31-4.04-.28-4.28-1.12-.7-2.1-2.74-1.38-4,.11-.19.34-.19.6-.12-.25-.07-.47-.07-.58.12-.72,1.25.26,3.3,1.38,4,1.25.78,2.76.79,4.14,1.1v-4.14c-.42.04-.75.05-1,.05.25,0,.57-.02.99-.05h.21-.19v4.14c.41.09,1.07.19,1.37.28,0,.04-.07.37.55.27.08-1.94-.08-3.28-.25-3.52.17.19.34,1.54.26,3.53h0-.02c-.65.1-.52-.28-.55-.28-.3-.09-.97-.19-1.38-.28h0c-1.38-.29-2.89-.3-4.14-1.09-.02.24-1.59,1.6.28,4.28ZM132.06,106.42c-.14.62.3,2.09.03,2.89.26-.82-.19-2.29-.03-2.89ZM136.32,106.62h.1-.1c-.02.37-.02.73,0,1.1,0-.37,0-.73,0-1.1ZM136.33,111.4c-.17,0-.34-.06-.46-.06.12,0,.29.06.46.06ZM138.42,113.81c-.09,0-.18-.02-.26-.03.09,0,.18.02.26.03ZM147.65,104.68c-.47,1.96-3.42,8.7-5.8,8.28-.31.22-.26.28-.28.28.18.53.49.79.87.84-.39-.04-.71-.3-.9-.84h.02s-.03-.06.28-.28h0c2.39.37,5.31-6.34,5.78-8.29h1.08s-1.06.01-1.06.01ZM142.93,92.41c3.17-1.85.36-5.5-4.13-6.5h0c-.08-.36-.25-.3-.27-.28-.16-1.8.03-2.68.4-3.09-.34.43-.52,1.32-.36,3.06,0,.02.2-.11.28.28,4.51,1,7.33,4.69,4.08,6.53h0ZM138.36,72.66h.06-.06ZM138.54,85.64h0c-.09.02-.18.02-.27.01h.26ZM132.44,109.93c-.18-.08-.38-.18-.54-.27v-.02c.16.11.37.2.55.28.71.31,1.43.21,1.66.28-.13-.64-.21-1.28-.28-1.93-.06-.61-.23-1.02,0-1.65h0c-.22.64-.06,1.04,0,1.63h0c.07.65.15,1.29.28,1.93.04.02.02.06.82.28-.21-1.47-.08-2.58-.26-2.83.2.22.06,1.34.27,2.83h0c.65.17,1.02.45,1.38.55.04-.37.06-.73.06-1.1,0,.37-.02.73-.06,1.1h0c-.36-.1-.73-.37-1.38-.55-.81-.22-.83-.28-.83-.28-.23-.07-.95.03-1.66-.28-.7.72-1.01.72,0,1.93.44.52,1.42.6,1.66,1.38.46.06.75.25,1.65.28h0c.12,0,.25.02.37.03-.13-.01-.26-.03-.39-.03-.9-.03-1.19-.21-1.63-.28-.24-.77-1.22-.86-1.66-1.37-.04.27-.15.38-.3.38.14-.01.24-.13.28-.38-1.01-1.21-.7-1.21,0-1.93v.02ZM137.97,155.19c.37-.04,1.16-.43,1.59-.48-.47.08-1.26.48-1.59.48h0ZM136.89,153.82h0c.16,0,.37,0,.59-.03-.22.02-.42.03-.58.04h0ZM135.62,152.92c-.31-.47-.57-1.46-.86-3.77.29,2.31.56,3.29.86,3.77ZM141.05,79.39c.24.32.94,2.62.83,2.76,0,.01-.03.02-.04.03.1-.16-.6-2.44-.83-2.75-.82-1.11-1.84-.91-1.93-.97h0s.05-.02.07-.03c.15.04,1.12-.1,1.91.97h-.01ZM135.2,79.56c.33-.49.55-.56.68-.56-.13,0-.35.08-.67.56l.83-.55h-.04.03c.68-.6,1.66.24,1.38-2.21-1.87-.78-1.95-3.07-.69-3.86.39-.25.84-.34,1.28-.32-.43-.02-.87.08-1.27.32-1.26.79-1.18,3.08.69,3.86.45.19.3.35.82,0v.02c-.5.33-.37.17-.81-.01.28,2.45-.7,1.61-1.38,2.21l-.83.55c-1.08,1.61-.88,2.1-.26,2.36-.63-.26-.85-.74.24-2.37h0ZM131.33,85.49c.75-.83,2.72-2.07,2.9-2.07h0c-.19,0-2.16,1.24-2.9,2.07-1.87,2.1-7.08,15.09-4.15,14.77h0v1.11h0c-1.74.94-.32,2.29-.27,2.75h0c.04.46-.44.79-.28,1.52.63,2.88,3.03,7.03,6.11,7.99-3.1-.94-5.51-5.11-6.14-8-.16-.74.33-1.06.28-1.52-.04-.46-1.47-1.82.28-2.76v-1.1c-2.95.35,2.27-12.68,4.14-14.77h.03ZM.88,30.3c.82-.19,1.55,4.62,2.67,7.43-1.13-2.8-1.86-7.6-2.67-7.43ZM14.88,57.62c-3.63-6.68-8.42-12.74-11.3-19.81,2.88,7.08,7.67,13.13,11.3,19.81,1.38,6.14.8,12.57,1.66,18.77-.87-6.21-.29-12.64-1.66-18.77ZM17.8,82.55c.52,1.88,1.13,3.62,1.83,5.28-.69-1.66-1.31-3.39-1.83-5.28ZM22.49,93.62c.39.7.79,1.41,1.21,2.12-.42-.71-.82-1.41-1.21-2.12ZM31.44,110.33c-.54-.88-1.19-3.47-2.75-6.2h0c1.57,2.73,2.22,5.33,2.76,6.21.35.57.76,1.04,1.22,1.44-.46-.4-.87-.88-1.23-1.45ZM33.12,112.14c-.12-.08-.23-.18-.34-.27.11.09.23.19.34.27ZM44.41,126.49c.17-.35,3.37-4.52,3.85-5.1,2.75-3.29,6.72-6.52,10.49-8.56-.2-.17-.39-.31-.58-.41.2.1.39.24.59.41-3.77,2.04-7.74,5.27-10.49,8.56-.48.59-3.73,4.82-3.86,5.11-.88,1.93-1.15,3.61-1.1,5.18-.06-1.57.21-3.25,1.09-5.19h.01ZM80.54,183.63c-.72-.7-1.25.27-1.38-2.48-.59-.83-1.24-1.61-1.88-2.42l-.02-.07c.64.81,1.31,1.61,1.92,2.46-.03-.7.47-1.47.28-2.48-.92-1.33-1.74-2.74-2.76-4-.02-.22.37-.26.77-.25-.4,0-.78.03-.76.25,1.02,1.26,1.84,2.66,2.76,4,1.43,2.08,2.56,5.52,3.86,2.62.11-.23.14-.43.13-.58,0,.16-.02.35-.13.59-1.29,2.9-2.43-.54-3.86-2.62.19,1-.31,1.77-.28,2.48.13,2.75.66,1.78,1.38,2.48h.02c3.79,3.62,14.79,2.45,19.44-.02.16-.08.33-.17.5-.26-.18.1-.36.19-.53.28-4.66,2.47-15.69,3.64-19.46,0v.02ZM100.99,195.21h0c-.26-.11-.45-.16-.6-.2.16.04.35.09.61.2h-.01ZM100.13,198.8c.7-.75,1.67-2.53,1.97-3.04h0c-.31.53-1.27,2.3-1.97,3.04ZM102.1,193.28h0c.44-2.65,1.2-4.61,2.21-6.16-1.01,1.55-1.76,3.52-2.2,6.16h-.01ZM120.27,176.52c.85-1.24,1.61-3.36,2.79-7.51-.49-.86-.05-4.7-.28-5.11-.27-.47-.97.22-1.37.14v-.02c.39.08,1.1-.62,1.37-.14.23.42-.2,4.25.28,5.11.98-3.46,3.93-17.19,4.42-20.7h0v.03c-.5,3.56-3.43,17.22-4.41,20.67-1.19,4.19-1.95,6.31-2.81,7.54h.01ZM127.75,147.05c.18-.72.36-1.45.28-2.21-1.14.29-.39-2.28-1.65-2.35h0c1.27.08.51,2.65,1.65,2.35.08.76-.1,1.49-.28,2.22h0ZM139.85,157.08c1.13-.54.64-1.3.95-1.32-.16.15.15.84-.95,1.32ZM141.51,147.21c-.32.06-.74-.03-1.1,0-.71.07-1.49,0-2.21,0-.43,0-.88.02-1.3,0,0,0,0,0,0-.02.45.03.91,0,1.37,0,.72,0,1.5.07,2.21,0v-.83c-.12-.04-.53-.26-.55-.28-.65-.75-.9-2.31-.55-3.29h0c-.34.98-.09,2.54.56,3.29.02.03.42.25.55.28v.83c.36-.03.78.06,1.1,0,.45-.09.78-.19,1.03-.32-.26.14-.6.25-1.09.35h0ZM156.68,167.49c-.14.25-.18.66.06,1.34.9,2.55,3.52,1.18,3.59,1.38,0,0-.02.02-.04.03-.18-.13-2.7,1.12-3.57-1.37-.25-.72-.2-1.13-.04-1.38ZM186.83,196.58h0s0,.12-.14.2c.11-.08.07-.17.1-.17,1.4-2.54,3.11-4.35,5.19-5.49-2.06,1.14-3.75,2.94-5.15,5.46h0ZM230.99,149.53c-6,4.88-7.75,12.24-11.87,17.94-5.78,8.01-15.19,13.16-19.73,22.22h-.03c4.54-9.06,13.93-14.2,19.72-22.2,4.12-5.7,5.87-13.06,11.87-17.94-2.35-5.78.24-9.88.83-13.11.8-6.44-.58-4.9-1.1-6.49-.54-1.66-.53-4.93-2.42-5.1,0,0,0-.02-.02-.03-.18-.29-3.76-4.51-4.42-5.24.67.72,4.24,4.95,4.42,5.24,1.94.11,1.93,3.43,2.48,5.11.52,1.6,1.9.06,1.1,6.49h0c-.59,3.23-3.18,7.33-.83,13.11ZM231.97,135.55c.27-1.52.48-3.01.43-4.49.05,1.49-.16,2.98-.43,4.49ZM223.54,117.93h0l.28,1.65s-.03-.03-.04-.05l-.27-1.58c-.76-.8-5.12-4.77-5.24-5.11-.12-.36-.03-.52.07-.59-.1.09-.16.25-.04.57.12.35,4.48,4.31,5.24,5.11h0ZM219.27,112.06c.08-.04.16-.09.22-.13-.06.04-.14.09-.22.13ZM218.27,110.48c.23.56.2,1.1.28,1.66h0c-.08-.56-.06-1.1-.28-1.66-8.64,1.39-14.63,3.01-24.15,2.21-6.12-.51-32.14-8.46-39.05-11.04-.9-.34-4.47-1.28-4.83-1.66-.31-.34-.16-.57,0-.7-.14.14-.27.36.03.68.36.39,3.93,1.32,4.83,1.66h.02c6.92,2.58,32.92,10.53,39.04,11.04,9.52.79,15.5-.82,24.15-2.21,1.1-.18,2.11-.69,3.31-.83.05-.6.21-.69.28-1.37h0c-.07.69-.23.78-.28,1.38h-.02c-1.2.14-2.21.65-3.31.83h0ZM222.01,109.61c1.56-.16,3.03-.13,4.58-.23-1.55.11-3.01.08-4.58.23ZM255.28,90.47c-1.02,2.42-11.85,21.17-12.97,21.94h0c-1.29.89-2.68,1.19-4.1,1.21,1.42-.02,2.81-.32,4.09-1.21,1.12-.77,11.95-19.51,12.97-21.94,1.89-4.49,2.93-8.81,3.58-13.62,0-.02.01-.03.02-.05.04-.33.07-.66.11-.99-.04.33-.07.67-.11,1-.65,4.83-1.69,9.15-3.59,13.66h0Z"/>
  <path class="cls-1" d="M146.81,79.29c5.87-7.37,11.18-15.11,17.39-22.22,6.8-7.79,14.49-14.65,21.8-21.94-7.7,6.34-14.94,13.05-21.53,20.56-3.39,3.86-16.25,19.94-17.66,23.6Z"/>
  <path class="cls-1" d="M183.25,204.59h0c-.88-.25-4.18-.86-5.52-1.1h0c-1.85-1.35-1.89-3.65-1.65-5.79.07-.57.23-.6.28-.83.16-.75.55-1.43.55-2.21h0l-3.86,1.94c.1.37-.1,1,0,1.38.46,1.81.98,3.48,1.66,5.24h0c.42,1.07.53,1.01.83,1.65,3.82.11,7.43,2.77,7.71-.14-.28,2.92-3.89.25-7.71.14.42.88.95,1.62,1.38,2.48.47.96,0,2.09,1.38,2.21,1.24-.68,2.69-1.13,4-1.66.69-.52,1.94-2.65,2.07-2.76-.11-.26-.82-.47-1.1-.55h-.01Z"/>
  <path class="cls-1" d="M166.14,41.61c.03-.76-1.13-1.79-1.24-1.79-.23,0-2.02,2.16-2.35,2.48,1.69,1.57-2.69,5.94-3.59,8.28h0c1.33-1.01,7.15-8.1,7.18-8.97h0Z"/>
  <path class="cls-1" d="M170.83,37.75c.86-1.57.51-2.55-.28-4-.2.04-.36.18-.55.28h0c.19-.1.34-.24.55-.28-1.39-2.55-3.44-2.96-5.51-1.11h0c-4.69,4.22,3.13,9.92,5.8,5.11h-.01ZM165.34,33.02c-.03.26-.29.56-.31.72h0c0-.16.28-.46.31-.72ZM165.01,34.67c.21,3.5,3.51,4.27,4.64,1.81-1.12,2.47-4.43,1.71-4.64-1.81ZM169.88,35.8c-.04.16-.1.3-.15.45.05-.14.11-.28.15-.45Z"/>
  <path class="cls-1" d="M106.65,38.99c4.11,2.2,8.18-3.16,4.55-6.35h0l-.55.29h0l.55-.28c-2.43-2.14-4.27-1.42-5.52,1.1.24-.02.26.07.28.28.37,4.9,3.71,5.06,4.81,2.88-1.1,2.19-4.43,2.04-4.81-2.87-.02-.21-.05-.31-.28-.28-.93,1.89-1.38,3.98.97,5.24h0ZM110.92,33.97c-.07-.23-.23-.92-.26-1.03.04.08.2.77.26,1.03ZM106.51,34.02c.1,1.33.76,1.85,1.56,1.85-.8,0-1.46-.52-1.56-1.85ZM110.99,36.31s-.02.06-.03.09c0-.03.02-.06.03-.09Z"/>
  <path class="cls-1" d="M149.57,57.75c1.04-.85,1.96-3.03,4.14-1.93.33-.36.74-.71,1.1-1.1,1.29-1.42,3.02-2.53,4.14-4.14h0c.9-2.34,5.28-6.71,3.59-8.28-1.48,1.43-2.17,2.42-3.31,3.59-1.79,1.84-3.5,3.62-5.24,5.52h0c-3.5,3.83-4.89,4.97-8.55,9.65,1.69-.69,2.78-2.19,4.14-3.31h0Z"/>
  <path class="cls-1" d="M234.86,11.66c8.99-.91,16.87.29,25.39,3.04-7.84-3.65-16.89-4.62-25.39-3.04Z"/>
  <path class="cls-1" d="M175.25,170.09c3.6,4.88,3.91,3.98,9.38,4.97-.04-.26.06-.6,0-.83-.29-1.07-1.23-2.06-1.66-3.03-1.85-1.1-3.88-.55-5.65-.83-.14-.03-.9-2.16-2.07-.28Z"/>
</svg>