<?xml version="1.0" encoding="UTF-8"?>
<svg id="Layer_1" data-name="Layer 1" xmlns="http://www.w3.org/2000/svg" viewBox="0 0 82.54 84.88">
  <defs>
    <style>
      .cls-1 {
        fill: #ece4ea;
        stroke-width: 0px;
      }
    </style>
  </defs>
  <circle class="cls-1" cx="22.68" cy="61.31" r="19.23"/>
  <circle class="cls-1" cx="61.41" cy="64.54" r="18.96"/>
  <path class="cls-1" d="M20.89,63.45c3.1-1.69,5.32-4.44,7.31-7.28,1.79-2.54,3.55-5.1,5.38-7.62,3.67-5.05,7.42-10.08,10.43-15.56,1.82-3.32,3.38-6.81,4.52-10.42h-7.71c1.5,5.55,3.14,11.06,4.91,16.53s3.61,11.1,5.9,16.45c1.24,2.91,2.81,5.57,4.89,7.97,1.38,1.59,4.27,1.52,5.66,0,1.55-1.69,1.47-3.97,0-5.66-.28-.32-.55-.66-.82-.99l.63.81c-1.47-1.95-2.59-4.12-3.53-6.36l.4.96c-1.63-3.9-2.96-7.94-4.31-11.95s-2.73-8.4-3.97-12.63c-.71-2.41-1.39-4.82-2.05-7.25-.44-1.63-2.12-3.01-3.86-2.94s-3.31,1.19-3.86,2.94c-.45,1.41-.96,2.8-1.53,4.17l.4-.96c-3.69,8.69-9.63,16.11-15.08,23.72-1.49,2.09-2.88,4.25-4.44,6.28l.63-.81c-.93,1.19-1.94,2.31-3.12,3.25l.81-.63c-.52.4-1.06.75-1.63,1.07-1.84,1-2.58,3.69-1.44,5.47s3.51,2.51,5.47,1.44h0Z"/>
  <g>
    <path class="cls-1" d="M46.76,18.68c-3.11-5.91-7.97-10.92-14.25-13.4-6.12-2.41-12.84-1.96-18.84.56-4.12,1.73-8.37,4.53-13.01,4.32l.25.93c.84-.48,1.62.09,2.25.65s1.26,1.17,1.86,1.78c1.12,1.16,2.17,2.38,3.2,3.62,2.11,2.54,4.12,5.18,6.4,7.58,2.06,2.15,4.4,4.17,7.12,5.43s5.62,1.54,8.55.96c3.81-.76,7.32-2.65,10.66-4.56.56-.32.06-1.18-.5-.86-3.03,1.73-6.17,3.42-9.58,4.27-3.05.76-6.13.56-8.97-.84-5.78-2.83-9.52-8.59-13.54-13.36-1.17-1.39-2.39-2.75-3.71-4-1.15-1.1-2.59-2.46-4.25-1.53-.45.25-.23.91.25.93,3.86.18,7.49-1.71,10.89-3.28,3.22-1.49,6.49-2.75,10.05-3.1,6.25-.61,12.45,1.4,17.24,5.44,2.94,2.48,5.27,5.57,7.06,8.97.3.57,1.16.06.86-.5h0Z"/>
    <path class="cls-1" d="M46.51,19.16C39.93,6.58,27.39,1.38,15.06,6.11c-4.76,1.83-9.6,5.04-14.22,4.77,1.03-.66,2.05,0,2.86.73,3.82,3.38,6.95,7.98,10.46,11.9,3.52,3.92,7.6,7.25,12.45,7.6,4.65.34,9.57-2.08,14.28-4.77"/>
  </g>
  <g>
    <path class="cls-1" d="M42.02,14.62c.78-3,2.08-5.92,4.27-8.16,1.86-1.91,4.25-3.16,6.85-3.72,2.85-.62,5.84-.43,8.67.17,3.79.79,7.25,2.54,10.96,3.6,1.73.5,3.64.85,5.42.36s2.84-1.71,3.48-3.31l-.98-.13c-.3,5.63-1.64,11.41-5.06,16.01s-9.17,7.55-14.86,8.6c-3.53.65-7.02.11-10.25-1.43-.58-.28-1.09.59-.5.86,3.02,1.45,6.29,2.13,9.64,1.74,2.91-.34,5.78-1.28,8.42-2.52,2.92-1.36,5.57-3.29,7.64-5.77,1.67-2,2.94-4.3,3.87-6.73,1.31-3.44,1.91-7.11,2.1-10.76.03-.61-.79-.62-.98-.13-1.47,3.72-5.67,2.94-8.72,1.93-3.58-1.18-6.98-2.76-10.71-3.43-5.41-.97-11.28-.3-15.38,3.67-2.48,2.4-3.96,5.61-4.82,8.9-.16.62.8.89.96.27h0l-.02-.02Z"/>
    <path class="cls-1" d="M41.55,14.81C44.75,2.4,54.82-.05,66.28,3.96c2.92,1.02,5.95,2.43,8.68,2.84,2.72.42,5.17-.25,6.24-3.07-.38,7.54-2.55,13.13-5.69,16.98-3.14,3.85-7.25,6.01-11.69,7.38-3.94,1.22-8.29,1.8-13.54-.75"/>
  </g>
</svg>