<?xml version="1.0" encoding="UTF-8"?>
<svg id="Layer_1" data-name="Layer 1" xmlns="http://www.w3.org/2000/svg" viewBox="0 0 57.83 40.87">
  <defs>
    <style>
      .cls-1 {
        fill: #ece4ea;
        stroke-width: 0px;
      }
    </style>
  </defs>
  <path class="cls-1" d="M32.83,36.09h0s0,0,0,0h0Z"/>
  <path class="cls-1" d="M55.86,20.64l-7.23-7.5c-.31-.18-1.55-1.44-1.79-1.87l.03-.03c-.99-.93-1.81-2-2.77-2.95,0,.06.02.11.03.17l-.05-.02s0-.07,0-.11c-3.83-3.79-7.74-6.03-13.21-6.43v-.02c-3.01-.22-4.07.05-6.88.45-5.26,1.61-7.45,3.07-11.16,6.87v.03c-.94.96-1.79,1.97-2.75,2.93-.6.6-1.06,1.05-1.7,1.61-.13.11-.22.24-.36.36-1.59,1.93-3.47,3.62-5.18,5.44-.35.38-.69.77-1.07,1.12l2.59,2.72c.9.85,1.63,1.82,2.5,2.68,1.21,1.19,2.42,2.42,3.66,3.57.95.89,2.45,1.74,3.21,2.77,5.03,4.35,10.06,6.79,16.87,6.34,6.28-.41,10.27-3.56,14.82-7.5.12-.11.23-.25.36-.36.64-.57,1.34-1.12,1.96-1.7,2.48-2.31,4.79-4.87,7.14-7.32.54-.57,1.17-1.13.98-1.25h.01ZM28.84,31.06c-5.94,0-10.75-4.81-10.75-10.75s4.81-10.75,10.75-10.75,10.75,4.81,10.75,10.75-4.81,10.75-10.75,10.75Z"/>
  <circle class="cls-1" cx="28.84" cy="20.31" r="6.51"/>
</svg>