<?xml version="1.0" encoding="UTF-8"?>
<svg id="objects" xmlns="http://www.w3.org/2000/svg" viewBox="0 0 400 490.46">
  <defs>
    <style>
      .cls-1 {
        fill: #4e5468;
      }

      .cls-1, .cls-2, .cls-3, .cls-4, .cls-5, .cls-6, .cls-7, .cls-8 {
        stroke-width: 0px;
      }

      .cls-2 {
        fill: #6cffa7;
      }

      .cls-9 {
        fill: none;
        stroke: #090a16;
        stroke-linecap: round;
        stroke-linejoin: round;
        stroke-width: 8px;
      }

      .cls-3 {
        fill: #13a04c;
      }

      .cls-4 {
        fill: #21d86b;
      }

      .cls-5 {
        fill: #313442;
      }

      .cls-6 {
        fill: #d6d7d8;
      }

      .cls-7 {
        fill: #1d212b;
      }

      .cls-8 {
        fill: #fff;
      }
    </style>
  </defs>
  <g>
    <path class="cls-4" d="M137.04,371.86s-9.33,8.88-25.48,18.86c-8.94,5.53-19.96,11.39-32.65,16.27-19.46,7.48-42.82,12.66-68.54,10.75-3.03-41.62,12.86-72.19,27.39-91,1.83-2.39,3.65-4.58,5.41-6.59,14.99,13.78,32.27,25.11,51.2,33.35,10.91,4.76,22.38,8.49,34.27,11.06l8.4,7.3Z"/>
    <path class="cls-4" d="M389.63,417.74c-25.72,1.91-49.08-3.27-68.54-10.75-13.13-5.05-24.48-11.15-33.58-16.85-15.57-9.74-24.55-18.28-24.55-18.28l28.72-24.96,48.74-42.36s9.82,7.03,20.71,20.78c14.81,18.67,31.6,49.74,28.5,92.42Z"/>
    <path class="cls-4" d="M189.22,393.48s-3.16,6.98-9.66,16.8c-5.68,8.58-13.91,19.33-24.79,29.46-15.9,14.81-37.49,28.33-65.1,31.9-11.03-21.95-12.92-44.58-10.76-64.65,1.25-11.65,3.87-22.44,6.86-31.73,2.82-8.75,5.96-16.18,8.6-21.76,10.91,4.76,22.38,8.49,34.27,11.06,4.89,1.07,9.85,1.94,14.87,2.6l3.58,2.06,42.13,24.26Z"/>
    <path class="cls-4" d="M310.33,471.64c-11.77-1.53-22.44-4.85-32.03-9.31-12.94-6.01-23.94-14.09-33.07-22.59-10.97-10.21-19.24-21.05-24.93-29.66-6.4-9.71-9.52-16.6-9.52-16.6l42.13-24.26,22.32-12.85,16.45-9.47,8.04-4.63s7.78,12.54,14.11,31.78c3.16,9.56,5.95,20.78,7.26,32.94,2.16,20.07.27,42.7-10.76,64.65Z"/>
    <path class="cls-4" d="M261.99,369.22s0,14.14-4.02,32.97c-2.45,11.48-6.39,24.71-12.74,37.55-9.16,18.53-23.32,36.24-45.23,46.72-21.91-10.48-36.07-28.19-45.23-46.72-6.22-12.58-10.13-25.54-12.59-36.86-4.17-19.18-4.17-33.66-4.17-33.66h123.98Z"/>
    <path class="cls-3" d="M389.63,417.74c-2.48.18-4.94.3-7.37.36-3.95-24.71-13.95-45.45-25.29-61.96-7.89,15.01-21.77,26.71-38.3,35.76,1.02,4.82,1.86,9.87,2.42,15.09,2.16,20.07.27,42.7-10.76,64.65-11.77-1.53-22.44-4.85-32.03-9.31,10.34-6.57,31.68-25.06,25.35-63.19-15.64,6.65-32.58,11.39-48.56,14.68-2.37,8.38-5.57,17.24-9.86,25.92-9.16,18.53-23.32,36.24-45.23,46.72-9.99-4.78-18.36-11.06-25.39-18.23,11.58-3.04,41.12-14.15,43.26-48.94-1.26.12-42.8,2.87-71.64-4.4l8.54,24.85c-15.9,14.81-37.49,28.33-65.1,31.9-2.5-4.98-4.53-10-6.15-15.01,14.14-5.33,44.55-19.09,58.61-42.84-18.67-5.19-39.23-13.44-58.15-27.76l-5.07,20.96c-19.46,7.48-42.82,12.66-68.54,10.75-.34-4.6-.44-9.07-.34-13.4,31.36-2.77,56.56-19.41,65.03-25.65-14.35-12.8-27.35-29.64-37.3-51.95,1.83-2.39,3.65-4.58,5.41-6.59,14.99,13.78,297.25-15.61,297.25-15.61,0,0,.05.04.15.12.89.71,5.78,4.66,11.82,10.66,2.7,2.8,5.67,6.14,8.74,10,.94,1.19,1.89,2.43,2.85,3.72,14.02,18.95,28.55,48.74,25.65,88.7Z"/>
    <path class="cls-3" d="M364,328.23c0,.27-.01.54-.02.81-.96-1.29-1.91-2.53-2.85-3.72-3.07-3.86-6.04-7.2-8.74-10,3.67,3.64,7.75,8.03,11.61,12.91Z"/>
    <path class="cls-5" d="M396,200c0,107.19-86.04,194.27-192.82,195.97,114.51-2.52,126.19-140.96,48.29-183.59-.24-.15-.48-.27-.72-.39-11.97-6.73-26.67-10.98-44.17-11.82-4.37-.21-8.74-.13-13.1-.33-16.03-.82-30.11-4.65-42.2-10.72-33.92-17.01-52.02-51.59-53.1-86.3-.68-21.83,5.38-43.72,18.48-61.32,16.01-21.53,42.53-36.65,80.13-37.47.45,0,.9-.01,1.35-.02.62-.01,1.24-.01,1.86-.01,108.25,0,196,87.75,196,196Z"/>
    <path class="cls-8" d="M293.92,338.3c-12.85,31.72-42.78,56.61-90.74,57.67-.45.01-.9.01-1.35.02-.61,0-1.22,0-1.83,0-78.95,0-146.99-46.67-178.04-113.93-11.17-24.17-17.55-51.02-17.94-79.31-.01-.84-.02-1.68-.02-2.53v-.55c0-.7.01-1.39.02-2.09v-.1c.01-1.23.04-2.46.08-3.68.03-.71.05-1.42.08-2.13C8.49,88.35,92.8,5.7,196.79,4.03c-117.26,2.55-126.83,144.3-45.49,185.1,11.61,6.09,25.64,9.92,42.18,10.71,4.36.21,8.73.13,13.1.33,16.95.88,31.7,5.12,44.17,11.82.24.12.48.24.72.39,31.87,17.44,48.74,50.91,49.72,84.55.41,14.15-1.99,28.34-7.27,41.37Z"/>
    <circle class="cls-5" cx="198.96" cy="297.69" r="26.26"/>
    <circle class="cls-8" cx="198.96" cy="96.5" r="26.26"/>
    <path class="cls-7" d="M396,200.23c0,108.25-87.75,196-196,196S5.37,309.85,4.02,202.76c.39,28.29,6.77,55.14,17.94,79.31,31.05,67.26,99.09,113.93,178.04,113.93.61,0,1.22,0,1.83,0,.45-.01.9-.01,1.35-.02,47.96-1.06,77.89-25.95,90.74-57.67,56.13-30.7,95.59-88.07,101.35-155.07.48,5.6.73,11.27.73,17Z"/>
    <path class="cls-6" d="M293.92,338.3c-12.85,31.72-42.78,56.61-90.74,57.67-.45.01-.9.01-1.35.02-.61,0-1.22,0-1.83,0-78.95,0-146.99-46.67-178.04-113.93-11.17-24.17-17.55-51.02-17.94-79.31-.01-.84-.02-1.68-.02-2.53v-.55c0-.7.01-1.39.02-2.09v-.1c.02-1.23.04-2.46.08-3.68.03-.71.05-1.42.08-2.13.13-2.83.31-5.65.55-8.45,8.62,100.29,92.75,179,195.27,179,34.03,0,66.03-8.67,93.92-23.93Z"/>
    <path class="cls-1" d="M333.8,94.32c-5.57,12.41-32.35-15.84-74.68-34.83-42.34-18.98-84.19-21.52-78.62-33.93,5.58-12.42,48.64-11.69,90.97,7.3,42.33,18.99,67.9,49.05,62.33,61.47Z"/>
    <path class="cls-2" d="M35.4,370.47c-4.52,11.51-6.46,21.26-9.83,19.93-3.37-1.33-6.65-7.17-.37-23.92,7.23-19.28,13.37-19.06,16.75-17.73,3.37,1.32-2.03,10.22-6.55,21.72Z"/>
    <path class="cls-2" d="M95.06,421.94c-.89,12.33.15,22.22-3.46,21.95-3.62-.27-8.48-4.87-7.46-22.73,1.18-20.56,7.1-22.17,10.73-21.91,3.61.26,1.09,10.36.19,22.69Z"/>
    <path class="cls-2" d="M184.67,457.09c-3.06,1.94-9.71,1.15-19.54-13.8-11.31-17.2-7.52-22.03-4.45-23.98,3.05-1.95,7.05,7.66,13.68,18.1,6.64,10.43,13.37,17.74,10.31,19.68Z"/>
    <path class="cls-2" d="M371.94,402.62c-.89,3.51-6.28,7.49-23.68,3.35-20.03-4.78-20.58-10.89-19.68-14.41.88-3.52,10.38.74,22.37,3.8,11.98,3.04,21.89,3.75,20.99,7.26Z"/>
    <path class="cls-2" d="M254,421.64c3.44,2.28,8.38,7,14.35,11.69,9.75,7.61,18.53,12.25,16.3,15.1-2.24,2.86-8.77,4.33-23.03-6.48-5.7-4.32-9.19-7.84-11.21-10.72l3.59-9.59Z"/>
  </g>
  <path class="cls-9" d="M44.22,318.96c-15.7,17.52-37.34,50.81-33.85,98.78,25.72,1.91,49.08-3.27,68.54-10.75"/>
  <path class="cls-9" d="M355.78,318.96c15.7,17.52,37.34,50.81,33.85,98.78-25.72,1.91-49.08-3.27-68.54-10.75"/>
  <path class="cls-9" d="M154.77,439.74c-15.9,14.81-37.49,28.33-65.1,31.9-11.03-21.95-12.92-44.58-10.76-64.65,1.88-17.48,6.83-33.01,11.5-44.48"/>
  <path class="cls-9" d="M309.59,362.51c10.02,24.64,21.38,68.07.74,109.13-27.61-3.57-49.2-17.09-65.1-31.9"/>
  <path class="cls-9" d="M139.35,386.44c3.46,27.05,15.91,78.62,60.65,100.02,44.74-21.4,57.18-72.98,60.65-100.03"/>
  <path class="cls-9" d="M396,200c0,107.19-86.04,194.27-192.82,195.97,114.51-2.52,126.19-140.96,48.29-183.59-.23-.14-.47-.27-.71-.39-11.98-6.73-26.67-10.97-44.17-11.82-4.36-.21-8.73-.12-13.1-.32-16.03-.82-30.11-4.65-42.2-10.72C69.96,148.33,79.53,6.57,196.79,4.03c.45,0,.9-.02,1.35-.02.62,0,1.24,0,1.86,0,108.25,0,196,87.75,196,196Z"/>
  <path class="cls-9" d="M203.18,395.97c-.45,0-.9.02-1.35.02-.61,0-1.21,0-1.83,0-108.25,0-196-87.75-196-196S90.02,5.74,196.79,4.03c-117.26,2.54-126.84,144.29-45.5,185.1,11.61,6.09,25.64,9.92,42.18,10.71,4.36.21,8.73.13,13.1.32,16.95.88,31.7,5.12,44.17,11.82.24.12.48.25.71.39,77.9,42.63,66.22,181.08-48.29,183.59Z"/>
  <circle class="cls-9" cx="198.96" cy="297.69" r="26.26"/>
  <circle class="cls-9" cx="198.96" cy="96.5" r="26.26"/>
</svg>