<?xml version="1.0" encoding="UTF-8"?>
<svg id="objects" xmlns="http://www.w3.org/2000/svg" version="1.1" viewBox="0 0 400 400">
  <defs>
    <style>
      .cls-1 {
        fill: none;
        stroke: #090a16;
        stroke-linecap: round;
        stroke-linejoin: round;
        stroke-width: 8px;
      }

      .cls-2 {
        fill: #000;
      }

      .cls-2, .cls-3 {
        stroke-width: 0px;
      }

      .cls-3 {
        fill: #fff;
      }
    </style>
  </defs>
  <path class="cls-2" d="M396,200c0,107.2-86,194.3-192.8,196,114.5-2.5,126.2-141,48.3-183.6-.2-.1-.5-.3-.7-.4-12-6.7-26.7-11-44.2-11.8-4.4-.2-8.7-.1-13.1-.3-16-.8-30.1-4.6-42.2-10.7-33.9-17-52-51.6-53.1-86.3-.7-21.8,5.4-43.7,18.5-61.3,16-21.5,42.5-36.7,80.1-37.5.4,0,.9,0,1.4,0,.6,0,1.2,0,1.9,0,108.2,0,196,87.8,196,196Z"/>
  <circle class="cls-2" cx="199" cy="297.7" r="26.3"/>
  <circle class="cls-3" cx="199" cy="96.5" r="26.3"/>
  <path class="cls-1" d="M396,200c0,107.2-86,194.3-192.8,196,114.5-2.5,126.2-141,48.3-183.6-.2-.1-.5-.3-.7-.4-12-6.7-26.7-11-44.2-11.8-4.4-.2-8.7-.1-13.1-.3-16-.8-30.1-4.6-42.2-10.7C70,148.3,79.5,6.6,196.8,4c.4,0,.9,0,1.4,0h1.9c108.2,0,196,87.8,196,196h0Z"/>
  <path class="cls-1" d="M203.2,396c-.4,0-.9,0-1.4,0h-1.8C91.7,396,4,308.2,4,200S90,5.7,196.8,4c-117.3,2.5-126.8,144.3-45.5,185.1,11.6,6.1,25.6,9.9,42.2,10.7,4.4.2,8.7.1,13.1.3,16.9.9,31.7,5.1,44.2,11.8.2.1.5.2.7.4,77.9,42.6,66.2,181.1-48.3,183.6h0Z"/>
  <circle class="cls-1" cx="199" cy="297.7" r="26.3"/>
  <circle class="cls-1" cx="199" cy="96.5" r="26.3"/>
</svg>