<?xml version="1.0" encoding="UTF-8"?><svg id="Layer_1" xmlns="http://www.w3.org/2000/svg" viewBox="0 0 79.56 37.46"><defs><style>.cls-1{fill:#4440ff;}.cls-2{fill:#ffe9ff;}</style></defs><path class="cls-1" d="M73.96,30.33c-1.51-4.65-1.91-5.39-4.06-5.27-.79.05-1.8.22-3.28.52l-.27-1.06c5.59-1.76,5.62-1.88,7.15-7.8l1.07.23c-.49,2.9-.66,4.35-.12,5.06.58.76,2.32.97,5.11,1.26l-.05,1.09c-1,0-1.84.02-2.54.06-1.4.08-2.13.28-2.42.67-.49.65-.15,2.3.47,4.95l-1.05.29Z"/><path class="cls-1" d="M66.62,35.79c.15-1.29.3-2.62,0-2.94-.21-.22-.89-.21-1.39-.18-.44.02-.95.08-1.57.15l-.18-1.08c1.66-.37,2.69-.62,2.95-1.05.25-.43-.02-1.45-.45-2.98l1.03-.35q1.35,3.53,4.84,4.21l-.15,1.08c-.93-.08-1.56-.11-2.04-.09-1.18.07-1.34.35-1.96,3.4l-1.08-.17Z"/><path class="cls-2" d="M9.26,22.94c-4.27-.5-9.26-4.82-9.26-10.86,0-2.7,1.06-4.49,3.06-5.74,1.6-.99,3.8-1.58,6.2-1.47,4.73.18,8.11,3.38,8.82,8.02.09.59.18,1.17.27,1.75-2,.11-3.99.11-5.99,0-.09-.37-.17-.75-.26-1.12-.36-1.55-1.23-2.29-2.84-2.45-2.02-.22-3.05.72-3.05,2.87s1.03,3.42,3.05,3.73c1.59.22,2.49-.35,2.84-1.75.09-.35.18-.71.27-1.07,2,.12,3.99.11,5.99,0-.09.58-.18,1.16-.27,1.73-.72,4.41-4.1,7.04-8.82,6.36h0Z"/><path class="cls-2" d="M13.4,16.36c1.12.05,2.25.05,3.37.02-.69,4.28-4.04,5.79-7.51,5.26-3.86-.52-7.93-3.96-7.93-9.07s4.06-6.23,7.93-6.09c3.47.19,6.81,2.19,7.51,6.71-1.12.03-2.25.03-3.37-.01-.45-1.93-1.66-3.45-4.14-3.66-3.17-.29-4.38,1.66-4.38,4.11s1.21,4.9,4.38,5.42c2.48.35,3.69-.92,4.14-2.68h0Z"/><path class="cls-2" d="M26.71,21.96v-9.45c0-.75-.2-1.73-1.93-1.52-1.31.15-2.03.88-2.03,2.04v9.53c-2.15.27-4.29.45-6.44.48V.07c2.15-.02,4.29-.04,6.44-.07v5.73c.93-.61,2.14-1.11,3.67-1.21,4.08-.23,6.71,2.1,6.71,5.92v10.24c-2.14.47-4.28.91-6.41,1.29h0s0,0,0,0Z"/><path class="cls-2" d="M31.79,10.67v8.96c-1.25.27-2.49.52-3.74.76v-8.09c0-1.71-.94-3.08-3.27-2.83-2.33.24-3.37,1.97-3.37,3.69v8.24c-1.25.14-2.51.23-3.76.29V1.81c1.25-.02,2.51-.04,3.76-.07v7.36c.59-.98,2.21-2.77,5-3.01,3.39-.28,5.37,1.49,5.37,4.59h0Z"/><path class="cls-2" d="M32.07,20.9V4.44c2.15-.2,4.29-.41,6.44-.62v.61c.98-.66,2.19-1.12,3.59-1.24.94-.08,1.72-.07,2.31.02.33.05.65.1.98.15v5.13c-.58.09-1.15.18-1.73.28-.08-.02-.17-.04-.25-.06-.35-.08-1.08-.12-1.98.04-1.94.33-2.92,1.39-2.92,3.15v7.57c-2.15.48-4.29.98-6.44,1.44h0s0,0,0,0Z"/><path class="cls-2" d="M44.06,4.36v3.11s-.08.01-.12.02c-.47-.11-1.36-.18-2.5,0-3.12.47-4.26,2.62-4.26,4.68v6.26c-1.25.29-2.51.57-3.76.85V5.73c1.25-.15,2.51-.3,3.76-.45v2.41c.55-1.04,2.1-3.01,4.93-3.29.87-.09,1.51-.09,1.96-.03h0Z"/><path class="cls-2" d="M43.35,18.41V3.36c2.15-.19,4.29-.37,6.44-.51v.5c.98-.53,2.19-.88,3.59-.94.94-.04,1.72,0,2.31.1.33.06.65.12.98.18v4.64c-.58.02-1.15.04-1.73.07-.08-.02-.17-.05-.25-.07-.35-.1-1.08-.2-1.98-.13-1.94.17-2.92,1.07-2.92,2.68v7.37c-2.15.31-4.29.7-6.44,1.14h0Z"/><path class="cls-2" d="M55.34,3.51v2.77s-.08,0-.12,0c-.47-.14-1.36-.28-2.5-.19-3.12.24-4.26,2.1-4.26,4v6.03c-1.25.2-2.51.43-3.76.68V4.41c1.25-.13,2.51-.26,3.76-.37v2.04c.55-.88,2.1-2.51,4.93-2.64.87-.04,1.51-.01,1.96.07h0Z"/><path class="cls-2" d="M58.11,21.06c.9-2.17,1.79-4.22,2.69-6.12-2.28-4.9-4.56-8.87-6.85-12.3,2.31-.09,4.63-.13,6.94-.09,1.04,1.76,2.09,3.73,3.13,5.93,1.02-1.97,2.03-3.8,3.05-5.64,2.28.19,4.56.47,6.85.86-3.05,6.15-6.1,10.84-9.15,17.85-2.22-.33-4.44-.48-6.66-.48h0Z"/><path class="cls-2" d="M71.84,4.64c-2.64,4.95-5.29,9.36-7.93,15.32-1.24-.17-2.48-.27-3.72-.33.69-1.61,1.39-3.15,2.08-4.6-2.06-4.5-4.13-8.26-6.19-11.46,1.31-.04,2.62-.05,3.94-.03,1.34,2.31,2.68,4.97,4.01,7.98,1.3-2.66,2.61-5.06,3.91-7.47,1.3.16,2.59.35,3.89.59h0Z"/><path class="cls-2" d="M13.33,37.05c-1.14-.01-2.08-.15-2.85-.38v.12c-2.01-.03-4.01-.06-6.02-.1v-16.16c2.01.6,4.01,1,6.02,1.24v3.68c.77-.19,1.7-.29,2.85-.23,4.44.17,7.55,2.7,7.55,6.32s-3.1,5.57-7.55,5.5ZM12.61,29.55c-1.71-.11-2.54.5-2.54,1.9s.83,2.05,2.54,2.12c1.68.06,2.47-.52,2.47-1.87s-.79-2.06-2.47-2.15h0Z"/><path class="cls-2" d="M19.54,31.62c0,3.18-2.77,4.6-6.21,4.55-1.96-.03-3.32-.53-4.18-1.4v1.06c-1.11-.04-2.23-.09-3.35-.15v-13.48c1.11.28,2.23.51,3.35.68v4.74c.86-.85,2.22-1.29,4.18-1.19,3.43.14,6.21,1.96,6.21,5.18h0ZM16.42,31.7c0-1.95-1.39-3.15-3.81-3.28-2.42-.16-3.88.86-3.88,2.89s1.45,3.16,3.88,3.23c2.42.07,3.81-.91,3.81-2.84h0Z"/><path class="cls-2" d="M37.95,36.92v-9.35c0-1.36-.56-1.53-1.46-1.36-.76.14-1.54.48-1.54,1.86v8.84c-2.15,0-4.29,0-6.44,0v-7.82c0-1.21-.56-1.38-1.46-1.24-.73.1-1.56.39-1.56,1.64v7.42c-2.14,0-4.28-.02-6.41-.03v-12.82c2.14-.14,4.28-.4,6.41-.74v.2c.78-.44,1.75-.83,2.97-1.06,1.95-.37,3.56-.18,4.68.6,1.11-1.1,2.71-2.16,4.76-2.62,4-.9,6.49.97,6.49,5.09v11.41c-2.15,0-4.29,0-6.44,0h0Z"/><path class="cls-2" d="M43.06,25.74v9.66c-1.26.03-2.51.07-3.77.11v-8.15c0-1.64-.69-2.9-2.8-2.47s-2.87,1.92-2.87,3.42v7.38c-1.26.04-2.51.07-3.77.11v-6.89c0-1.46-.69-2.61-2.8-2.27-2.1.33-2.9,1.69-2.9,3.01v6.28c-1.25.02-2.49.04-3.74.04v-10.75c1.25-.11,2.49-.25,3.74-.43v1.61c.47-.81,1.61-2.14,4.31-2.64,2.3-.43,3.84.06,4.58,1.34.47-.78,1.96-2.66,4.85-3.3,3.39-.75,5.15.77,5.15,3.96h0s0,0,0,0Z"/><path class="cls-2" d="M53.15,37.46c-1.38-.01-2.49-.38-3.37-.88v.37c-2.15,0-4.29-.01-6.44-.02V15.45c2.15-.44,4.29-.84,6.44-1.15v4.52c.88-.54,1.99-.96,3.37-1.09,4.9-.45,8.32,3.38,8.32,9.23s-3.42,10.57-8.32,10.51h0ZM52.33,23.52c-2,.19-3.02,1.45-3.02,3.78s1.02,3.49,3.02,3.4c1.98-.08,2.95-1.36,2.95-3.81s-.96-3.54-2.95-3.37h0Z"/><path class="cls-2" d="M60.14,26.89c0,5.41-3.12,8.82-6.99,8.8-2.21,0-3.74-.97-4.71-2.43v2.01c-1.25.02-2.51.05-3.76.08v-18.84c1.25-.25,2.51-.48,3.76-.68v6.04c.97-1.47,2.5-2.52,4.71-2.73,3.86-.34,6.99,2.38,6.99,7.75h0ZM56.62,26.86c0-3.33-1.56-5.08-4.29-4.84-2.73.28-4.36,2.27-4.36,5.42s1.63,5,4.36,4.92c2.72-.07,4.29-2.15,4.29-5.51h0Z"/><path class="cls-1" d="M15.23,17.37c1.12.06,2.25.08,3.37.07-.69,4.3-4.04,5.75-7.51,5.15-3.86-.59-7.93-4.22-7.93-9.22s4.06-6.04,7.93-5.95c3.47.17,6.81,2.23,7.51,6.8-1.12.02-2.25,0-3.37-.05-.45-1.95-1.66-3.49-4.14-3.71-3.17-.29-4.38,1.62-4.38,4.04s1.21,4.91,4.38,5.5c2.48.41,3.69-.85,4.14-2.62h0Z"/><path class="cls-1" d="M33.62,11.84v8.97c-1.25.26-2.49.51-3.74.74v-8.12c0-1.71-.94-3.11-3.27-2.89-2.33.22-3.37,1.95-3.37,3.69v8.29c-1.25.12-2.51.21-3.76.25V2.67c1.25-.01,2.51-.02,3.76-.04v7.48c.59-.99,2.21-2.79,5-2.98,3.39-.22,5.37,1.6,5.37,4.71h0Z"/><path class="cls-1" d="M45.89,5.77v3.05s-.08.01-.12.02c-.47-.11-1.36-.2-2.5-.04-3.12.42-4.26,2.55-4.26,4.6v6.24c-1.25.28-2.51.56-3.76.83V6.91c1.25-.12,2.51-.25,3.76-.38v2.39c.55-1.02,2.1-2.94,4.93-3.16.87-.08,1.51-.07,1.96,0h0s0,0,0,0Z"/><path class="cls-1" d="M57.17,5.12v2.7s-.08,0-.12,0c-.47-.15-1.36-.3-2.5-.23-3.12.18-4.26,1.99-4.26,3.86v5.99c-1.25.18-2.51.4-3.76.63V5.82c1.25-.11,2.51-.21,3.76-.29v1.98c.55-.86,2.1-2.41,4.93-2.49.87-.03,1.51.01,1.96.09h0Z"/><path class="cls-1" d="M73.67,6.35c-2.64,5.34-5.29,9.49-7.93,15.36-1.24-.21-2.48-.36-3.72-.46.69-1.6,1.39-3.11,2.08-4.53-2.06-4.59-4.13-8.39-6.19-11.53,1.31-.02,2.62-.01,3.94.01,1.34,2.29,2.68,4.98,4.01,8.06,1.3-2.62,2.61-5,3.91-7.5,1.3.16,2.59.35,3.89.58h0Z"/><path class="cls-1" d="M21.37,32.62c0,3.11-2.77,4.41-6.21,4.39-1.96-.02-3.32-.48-4.18-1.33v1.06c-1.11-.02-2.23-.04-3.35-.06v-13.61c1.11.31,2.23.57,3.35.77v4.73c.86-.84,2.22-1.24,4.18-1.11,3.43.19,6.21,2.02,6.21,5.17h0ZM18.24,32.67c0-1.91-1.39-3.12-3.81-3.28-2.42-.2-3.88.8-3.88,2.83s1.45,3.14,3.88,3.2c2.42.06,3.81-.87,3.81-2.76h0Z"/><path class="cls-1" d="M44.89,27.05v9.83c-1.26,0-2.51,0-3.77,0v-8.25c0-1.66-.69-2.93-2.8-2.52s-2.87,1.9-2.87,3.39v7.38c-1.26,0-2.51,0-3.77,0v-6.83c0-1.45-.69-2.61-2.8-2.28-2.1.31-2.9,1.66-2.9,2.96v6.14c-1.25,0-2.49-.01-3.74-.02v-10.54c1.25-.1,2.49-.23,3.74-.39v1.6c.47-.8,1.61-2.11,4.31-2.6,2.3-.42,3.84.08,4.58,1.36.47-.78,1.96-2.64,4.85-3.27,3.39-.72,5.15.82,5.15,4.05h0Z"/><path class="cls-1" d="M61.97,28.55c0,5.44-3.12,8.92-6.99,8.86-2.21-.02-3.74-1.06-4.71-2.58v2.06c-1.25,0-2.51,0-3.76,0v-19.09c1.25-.23,2.51-.45,3.76-.63v6.07c.97-1.47,2.5-2.5,4.71-2.66,3.86-.26,6.99,2.58,6.99,7.98h0ZM58.45,28.45c0-3.37-1.56-5.18-4.29-4.99-2.73.23-4.36,2.21-4.36,5.41s1.63,5.15,4.36,5.12c2.72-.02,4.29-2.14,4.29-5.54Z"/></svg>